<svg xmlns="http://www.w3.org/2000/svg" viewBox="0 0 652 139" preserveAspectRatio="xMidYMid meet"><defs><symbol id="t" viewBox="0 0 604.3125 91.265625"><g fill="#000000"><path d="M29.6250-11.4844L27.9375-69L44.7188-69.7969L44.7188 1.4531L2.3438-0.9844L2.6719-28.0313L14.2031-29.2031L13.7344-11.1563L29.6250-11.4844ZM86.9063-14.9063L64.5000-14.3438L59.4375 10.1719L49.4063 9.0938L67.7344-73.3594L85.3594-73.5000L105.3281 2.2031L91.7813 7.0313L86.9063-14.9063ZM69.7969-22.3594L86.6719-22.5938L77.9063-61.7344L69.7969-22.3594ZM109.8281 12.7031L111.0469 1.5938L143.1563 3.0938L143.7656-7.5469L110.7656-12.6094L113.3438-61.7813L152.0156-61.4063L152.8125-53.6250L124.5469-51.7031L125.4375-19.3125L150.7500-17.1563L151.1250 12.6094L109.8281 12.7031ZM117.6094-14.8125L117.6094-14.8125Q118.3125-20.5781 118.1719-32.3906L118.1719-32.3906Q117.6563-28.3125 117.6094-14.8125ZM119.3906-19.2656L119.3906-19.2656Q119.8125-20.0625 120.6094-29.2969L120.6094-29.2969Q120.7969-36.3750 120.5156-48.3281L120.5156-48.3281Q119.8125-42.4219 119.3906-19.2656ZM115.9688-36.3281L115.9688-36.3281Q116.9063-49.0313 116.4844-52.7344L116.4844-52.7344Q116.3906-53.2500 116.1563-55.0781L116.1563-55.0781Q115.6875-41.7656 115.9688-36.3281ZM120.8906-55.7344L120.9375-57.3281L120.8438-57.3281L120.7500-55.7344L120.8906-55.7344ZM142.1250 9.8438L142.1250 9.8438Q134.1563 9.2344 132.1406 9.4688L132.1406 9.4688Q131.8125 9.4688 130.7813 9.5625L130.7813 9.5625Q139.0781 9.9375 142.1250 9.8438ZM173.0625 11.5313L158.1094 11.2969L157.5000-74.7656L203.2500-75.7031L207-37.7813L202.8281-29.3906L170.6250-27.4688L167.9531-42.7500L195.1406-41.2500L194.6719-64.1250L173.4375-62.1094L173.0625 11.5313ZM161.4375-28.3594L161.4375-28.3594Q161.8125-33.7500 161.3906-35.7188L161.3906-35.7188Q161.0156-31.7344 161.4375-28.3594ZM161.0625-40.4063L161.2500-37.0781L161.4375-37.6875Q161.7656-49.3125 161.5781-55.0781L161.5781-55.0781Q161.1094-52.0313 161.0625-44.7188L161.0625-44.7188L161.0625-40.4063ZM160.2656-46.9219L160.2656-46.9219Q160.2656-57.7500 160.1250-64.9219L160.1250-64.9219L160.1250-72.5625L159.9375-72.5625Q159.5625-67.8281 159.5625-63.4219L159.5625-63.4219Q159.5625-62.7656 159.5625-61.5469L159.5625-61.5469Q159.5625-58.2656 159.7734-52.5938Q159.9844-46.9219 160.2656-46.9219ZM249.2344 14.7656L211.6875 15.5625L212.1563-69.9844L252.9375-69L253.4063-51.6563L223.5000-56.3438L223.5938-41.1094L236.2969-40.2188L236.8125-28.7813L226.6406-26.7188L227.0625 3.9844L249.3750 1.7813L249.2344 14.7656ZM223.4063-32.3906L223.4063-32.3906Q222.9375-26.2500 223.5938-13.6875L223.5938-13.6875Q223.9688-18 223.4063-32.3906ZM221.8125-27.6094L221.8125-27.6094Q221.4375-26.7188 221.1094-16.9219L221.1094-16.9219Q221.2500-9.3750 222 3.3750L222 3.3750Q222.4688-3 221.8125-27.6094ZM216.9375-44.1094L216.9375-44.1094Q216.5625-30.5625 217.1719-26.6719L217.1719-26.6719Q217.2656-26.1563 217.5938-24.1875L217.5938-24.1875Q217.5000-38.3438 216.9375-44.1094ZM222 11.2031L222 12.8906L222.0938 12.8906L222.0938 11.2031L222 11.2031ZM236.2969 13.0313L236.2969 13.0313Q244.1250 13.3125 246.0938 13.0313L246.0938 13.0313Q246.4219 12.9844 247.4531 12.8438L247.4531 12.8438Q239.2969 12.7969 236.2969 13.0313ZM260.9063-66L260.7656-70.8750L260.6250-70.0313Q260.3438-53.3438 260.4844-45.0469L260.4844-45.0469Q260.9063-49.3594 260.9063-59.9063L260.9063-59.9063L260.9063-66ZM292.9219-31.2656L297.7500-31.3594L296.8594-31.5000Q280.2188-31.8281 271.9688-31.6875L271.9688-31.6875Q276.3281-31.2656 286.8750-31.2188L286.8750-31.2188L292.9219-31.2656ZM295.8750-64.2188L268.3594-61.6875L269.3906-35.4844L293.5313-34.6875L295.8750-64.2188ZM296.3438 9.4688L268.6406-16.9688L268.6406 9.1875L258.0938 8.3906L258.0938-73.4063L299.0625-73.5469L305.4375-67.9219L303.3281-24.5625L276.7969-22.9688L305.1094 0.7031L296.3438 9.4688ZM275.4844-12.9375L272.4844-15.5156L272.9531-14.9531Q282.9375-5.7188 288.0469-1.2656L288.0469-1.2656Q285.6094-3.8906 279.2344-9.6094L279.2344-9.6094L275.4844-12.9375ZM293.9531 0.7500L297.7969 3.7031L297.1875 3.0469Q284.3906-7.6406 277.8750-12.7500L277.8750-12.7500Q281.0156-9.7031 289.2188-3.0469L289.2188-3.0469L293.9531 0.7500ZM348.9844 6.5156L335.5781 6.1406L333.9375-72.8438L351.8438-73.6875L349.7344-35.2969L372.2344-63.9844L381.9375-60.5156L356.4375-31.2188L384.4688-2.0156L372.3750 7.9688L346.9688-25.1250L348.9844 6.5156ZM342-2.6719L342-2.6719Q342.3750-14.0156 341.8125-37.2188L341.8125-37.2188Q341.5313-29.2500 342-2.6719ZM356.5781-40.2656L356.5781-40.2656Q357-40.5000 360.1406-44.1094L360.1406-44.1094Q362.4375-47.0625 366.4688-52.7344L366.4688-52.7344Q363.8906-49.8750 356.5781-40.2656ZM340.1250-26.4844L340.1250-26.4844Q340.4063-54.2813 339.9375-61.4063L339.9375-61.4063Q339.8438-62.4375 339.5625-66.0469L339.5625-66.0469Q339.6563-37.0781 340.1250-26.4844ZM389.1563-73.5938L404.7656-73.7344L405.7969-8.6250L441.6563-5.4375L439.0313 5.2031L392.0625 7.5469L389.1563-73.5938ZM393.0469-70.8750L393.0469-70.8750Q393.3281-53.9531 394.1719-45.7031L394.1719-45.7031Q393.7031-65.0625 393.0469-70.8750ZM408.0938 2.7656L408.0938 2.7656Q428.3438 3.1406 433.5469 2.5313L433.5469 2.5313Q434.2969 2.4375 436.9219 2.1563L436.9219 2.1563Q415.8750 2.2500 408.0938 2.7656ZM446.3438-71.0625L460.5000-70.1719L459.9844-6.8438L482.5781-6.2813L481.9219-72.6563L499.1719-71.8125L496.3125 6.3281L458.2500 6.9375L447.5156 0.8906L446.3438-71.0625ZM479.7188 4.5469L479.7188 4.5469Q489.6094 4.8281 494.3906 4.3594L494.3906 4.3594Q483.0938 4.1719 479.7188 4.5469ZM450.0469-48.1406L450.0469-48.1406Q449.6250-62.3438 449.3438-63.6094L449.3438-63.6094Q449.2969-27.9375 449.7656-16.6406L449.7656-16.6406Q450.0938-37.2188 450.0469-48.1406ZM467.8125 2.6250L467.8125 2.6250Q470.8125 3.0469 482.6250 2.4844L482.6250 2.4844Q478.0781 2.1563 465.8438 2.3438L465.8438 2.3438Q467.3438 2.5781 467.8125 2.6250ZM503.6719 12.7031L504.8906 1.5938L537 3.0938L537.6094-7.5469L504.6094-12.6094L507.1875-61.7813L545.8594-61.4063L546.6563-53.6250L518.3906-51.7031L519.2813-19.3125L544.5938-17.1563L544.9688 12.6094L503.6719 12.7031ZM511.4531-14.8125L511.4531-14.8125Q512.1563-20.5781 512.0156-32.3906L512.0156-32.3906Q511.5000-28.3125 511.4531-14.8125ZM513.2344-19.2656L513.2344-19.2656Q513.6563-20.0625 514.4531-29.2969L514.4531-29.2969Q514.6406-36.3750 514.3594-48.3281L514.3594-48.3281Q513.6563-42.4219 513.2344-19.2656ZM509.8125-36.3281L509.8125-36.3281Q510.7500-49.0313 510.3281-52.7344L510.3281-52.7344Q510.2344-53.2500 510-55.0781L510-55.0781Q509.5313-41.7656 509.8125-36.3281ZM514.7344-55.7344L514.7813-57.3281L514.6875-57.3281L514.5938-55.7344L514.7344-55.7344ZM535.9688 9.8438L535.9688 9.8438Q528 9.2344 525.9844 9.4688L525.9844 9.4688Q525.6563 9.4688 524.6250 9.5625L524.6250 9.5625Q532.9219 9.9375 535.9688 9.8438ZM606.6563-73.8281L606.5156-59.1094L584.3906-59.9531L587.0156 10.4063L571.3125 10.1719L572.4375-57.6094L551.3438-59.9531L551.3438-73.3594L606.6563-73.8281ZM578.7188-5.0156L578.7188-5.0156Q579.2813-7.7813 578.8125-15.5156L578.8125-15.5156Q578.2031-10.6875 578.7188-5.0156ZM575.9531-34.5000L575.7188-29.6250L575.7188-23.5313Q575.7656-12.9844 576.4219-8.6250L576.4219-8.6250Q576.6563-16.9219 576.1875-33.6094L576.1875-33.6094L575.9531-34.5000ZM574.1719-19.1250L574.1719-19.1250Q574.1719-11.0156 574.3125-5.6719L574.3125-5.6719L574.3125 0.0938L574.5000 0.0938Q574.8750-3.4688 574.8750-6.7969L574.8750-6.7969Q574.8750-7.2656 574.8750-8.1563L574.8750-8.1563Q574.8750-10.6875 574.6641-14.9063Q574.4531-19.1250 574.1719-19.1250Z" transform="translate(-2.34375 75.703125)" /></g></symbol></defs><use href="#t" x="24" y="24" width="604.3125" height="91.265625"/></svg>