<svg xmlns="http://www.w3.org/2000/svg" viewBox="0 0 456 117" preserveAspectRatio="xMidYMid meet"><defs><symbol id="t" viewBox="0 0 408.28799999999995 69.76833613445379"><g fill="#ffffff"><path d="M44.3520-35.5200L44.3520-35.5200Q44.4480-35.5200 44.4480-35.5200L44.4480-35.5200Q44.1600-17.7600 44.1600-16.1280L44.1600-16.1280Q43.8720-6.2400 39.8400 1.0560L39.8400 1.0560Q35.1360 9.6960 25.7280 10.2720L25.7280 10.2720Q17.3760 10.8480 10.9440 6.5280L10.9440 6.5280Q7.1040 3.9360 5.2800 0.2880L5.2800 0.2880Q1.3440-7.9680 2.0160-14.4000L2.0160-14.4000Q3.0720-23.6160 4.7040-27.5520L4.7040-27.5520Q5.6640-29.8560 6.6720-30.2400Q7.6800-30.6240 9.8880-29.6640L9.8880-29.6640Q12.0960-28.7040 13.9200-27.7440L13.9200-27.7440Q15.8400-26.7840 15.4560-24.6720L15.4560-24.6720Q15.3600-24.1920 15.0720-23.2320Q14.7840-22.2720 14.6880-21.7920L14.6880-21.7920Q13.6320-16.9920 13.3440-14.8800L13.3440-14.8800Q12.7680-10.9440 14.4960-6.2400L14.4960-6.2400Q15.9360-2.4960 20.3520-1.3440L20.3520-1.3440Q24.3840-0.2880 26.7840-1.4400Q29.1840-2.5920 31.0080-6.4320L31.0080-6.4320Q31.6800-7.9680 31.9680-9.1200L31.9680-9.1200Q33.3120-15.0720 33.2160-19.8720L33.2160-19.8720Q33.1200-22.8480 33.2160-31.9680L33.2160-31.9680Q33.2160-33.8880 33.2640-37.4880Q33.3120-41.0880 33.3120-42.8160L33.3120-42.8160Q33.3120-44.1600 33.2160-45.5040L33.2160-45.5040Q32.9280-47.7120 30.7200-47.8080L30.7200-47.8080Q30.4320-47.9040 29.1360-47.9040Q27.8400-47.9040 27.4560-47.9040L27.4560-47.9040Q21.4080-48 20.1600-48.0960L20.1600-48.0960Q18.5280-48.1920 17.8560-48.9120Q17.1840-49.6320 17.0880-51.1680L17.0880-51.1680Q17.0880-53.8560 17.2800-56.5440L17.2800-56.5440Q17.3760-59.3280 20.3520-59.3280L20.3520-59.3280Q21.4080-59.3280 23.3280-59.2800Q25.2480-59.2320 25.9200-59.1360L25.9200-59.1360Q26.8800-59.1360 28.7040-59.1360Q30.5280-59.1360 31.2000-59.1360L31.2000-59.1360Q39.9360-59.0400 41.7600-59.0400L41.7600-59.0400Q44.1600-58.9440 44.2560-56.3520L44.2560-56.3520Q44.3520-53.2800 44.3520-46.6560L44.3520-46.6560Q44.3520-45.6960 44.3520-35.5200ZM7.8720-6.5280L7.8720-6.5280Q7.8720-6.7200 8.2560-8.3520L8.2560-8.3520Q7.0080-8.7360 7.0080-8.7360L7.0080-8.7360Q6.8160-8.7360 6.6240-8.5920Q6.4320-8.4480 6.3840-8.3040Q6.3360-8.1600 6.4320-8.0640L6.4320-8.0640Q7.0080-7.5840 7.1040-6.8640Q7.2000-6.1440 7.1040-5.5680L7.1040-5.5680Q7.0080-5.1840 7.2480-5.0880Q7.4880-4.9920 7.9680-5.1840L7.9680-5.1840Q7.8720-6.4320 7.8720-6.5280ZM8.0640-21.8880L8.0640-21.8880Q8.3520-22.0800 8.7840-22.3680Q9.2160-22.6560 9.5040-22.8960Q9.7920-23.1360 10.2720-23.4240Q10.7520-23.7120 11.2320-24.0960L11.2320-24.0960Q10.0800-24.3840 9.5040-24.1440Q8.9280-23.9040 8.6880-23.5680Q8.4480-23.2320 8.0640-21.8880ZM37.5360-34.5600L37.5360-34.5600Q37.5360-34.5600 38.0160-33.9840L38.0160-33.9840Q38.4000-33.8880 38.7360-33.9840Q39.0720-34.0800 39.1680-34.2720Q39.2640-34.4640 39.1680-34.6560L39.1680-34.6560Q38.7840-35.2320 38.3040-35.1840Q37.8240-35.1360 37.5360-34.5600ZM5.0880-11.7120L5.0880-11.7120Q6.3360-12.0960 7.1040-13.5360L7.1040-13.5360Q5.7600-13.3440 5.5200-13.1040Q5.2800-12.8640 5.0880-11.7120ZM9.6000 0.5760L9.6000 0.5760Q9.7920 0.8640 10.8480 2.2080L10.8480 2.2080Q11.4240 1.2480 10.3680 0.0960L10.3680 0.0960Q10.2720 0.0960 10.1280 0.0960Q9.9840 0.0960 9.8880 0.0960L9.8880 0.0960Q9.5040 0.3840 9.6000 0.5760ZM34.0800-51.2640L34.0800-51.2640Q33.6000-50.1120 33.6960-49.7760Q33.7920-49.4400 34.8480-48.6720L34.8480-48.6720Q34.5600-49.4400 34.0800-51.2640ZM39.9360-17.3760L39.9360-17.3760Q40.0320-17.3760 41.1840-17.3760L41.1840-17.3760Q40.5120-18.1440 40.5120-18.1440L40.5120-18.1440Q40.2240-18.1440 39.7440-17.8560L39.7440-17.8560Q39.7440-17.8560 39.7920-17.6160Q39.8400-17.3760 39.9360-17.3760ZM37.5360-36.0960L37.5360-36.0960Q37.6320-36.0960 38.6880-36.5760L38.6880-36.5760Q37.3440-37.2480 37.2480-37.2480Q37.1520-37.2480 37.0080-37.0560Q36.8640-36.8640 36.8640-36.6720L36.8640-36.6720Q36.8640-36.3840 37.0560-36.1920Q37.2480-36 37.5360-36.0960ZM40.1280-29.8560L40.1280-29.8560Q40.4160-30.9120 39.1680-31.2960L39.1680-31.2960Q39.3600-30.6240 39.4560-30.4320Q39.5520-30.2400 40.1280-29.8560ZM36.8640-7.1040L36.8640-7.1040Q37.1520-7.3920 37.3440-7.6800L37.3440-7.6800Q37.2480-8.0640 37.0560-8.2560L37.0560-8.2560Q36.5760-7.7760 36.5760-7.7760Q36.5760-7.7760 36.8640-7.1040ZM35.4240-14.4000L35.4240-14.4000L37.3440-14.4000Q36.5760-15.0720 36.2400-15.0720Q35.9040-15.0720 35.4240-14.4000ZM40.3200-24.8640L40.3200-24.8640Q40.4160-24.9600 41.1840-25.4400L41.1840-25.4400Q40.8960-25.9200 40.8960-25.9200L40.8960-25.9200Q40.3200-25.7280 39.9360-25.5360L39.9360-25.5360Q39.8400-25.4400 39.7920-25.2960Q39.7440-25.1520 39.8400-25.0560L39.8400-25.0560Q40.0320-24.7680 40.3200-24.8640ZM40.3200-41.3760L40.3200-41.3760Q40.4160-41.4720 40.7040-41.7120Q40.9920-41.9520 41.0880-42.0480L41.0880-42.0480Q40.8000-42.4320 40.8000-42.4320L40.8000-42.4320Q40.6080-42.3360 39.9360-41.9520L39.9360-41.9520Q40.3200-41.3760 40.3200-41.3760ZM28.7040 3.8400L28.7040 3.8400Q28.8000 3.7440 28.9920 3.6480L28.9920 3.6480L29.3760 3.4560Q29.1840 3.1680 29.0880 2.9760L29.0880 2.9760Q28.6080 3.3600 28.6080 3.3600L28.6080 3.3600Q28.6080 3.3600 28.7040 3.8400ZM35.9040-51.5520L35.9040-51.5520Q36.2880-51.7440 36.6720-51.9360L36.6720-51.9360Q36.1920-52.4160 36.0960-52.4640Q36-52.5120 35.8560-52.3680Q35.7120-52.2240 35.7120-52.2240L35.7120-52.2240Q35.7120-52.1280 35.9040-51.5520ZM24.8640 3.1680L24.8640 3.1680Q24.8640 3.1680 25.6320 3.0720L25.6320 3.0720Q25.1520 2.4000 25.1040 2.3520Q25.0560 2.3040 24.8640 2.4000Q24.6720 2.4960 24.6720 2.4960L24.6720 2.4960Q24.6720 3.0720 24.8640 3.1680ZM21.5040 3.2640L21.5040 3.2640Q21.6000 3.2640 22.2720 2.5920L22.2720 2.5920Q21.6960 2.3040 21.6960 2.3040L21.6960 2.3040Q21.5040 2.4000 20.9280 2.9760L20.9280 2.9760Q21.5040 3.2640 21.5040 3.2640ZM30.2400 1.4400L30.2400 1.4400Q30.3360 1.4400 30.7200 1.4400L30.7200 1.4400Q30.6240 1.0560 30.5280 0.9600L30.5280 0.9600Q30.5280 0.9600 30.4320 0.9600Q30.3360 0.9600 30.3360 0.9600L30.3360 0.9600Q30.2400 1.0560 30.2400 1.4400ZM18.6240 4.8960L18.6240 4.8960Q18.5280 4.7040 18.3360 4.1280L18.3360 4.1280Q17.8560 4.5120 17.8560 4.5120L17.8560 4.5120Q17.8560 4.8960 18.0480 4.9920L18.0480 4.9920Q18.1440 4.9920 18.6240 4.8960ZM55.2960-35.4240L55.2960-35.4240Q55.4880-35.9040 58.3680-45.1200L58.3680-45.1200Q62.2080-45.9840 69.1200-45.3120L69.1200-45.3120Q69.9840-45.3120 70.3680-44.2560L70.3680-44.2560Q70.4640-44.0640 70.8480-42.9120L70.8480-42.9120Q78.5280-16.3200 79.1040-14.4000L79.1040-14.4000Q79.2960-13.7280 82.4640-2.4960L82.4640-2.4960Q82.4640-2.4000 82.5120-2.2080Q82.5600-2.0160 82.5600-1.9200L82.5600-1.9200Q82.9440-0.4800 82.6080 0.0480Q82.2720 0.5760 80.7360 0.6720L80.7360 0.6720Q79.4880 0.6720 77.1360 0.6720Q74.7840 0.6720 73.6320 0.6720L73.6320 0.6720Q71.8080 0.7680 71.2320-0.9600L71.2320-0.9600Q71.1360-1.2480 69.7920-5.0880L69.7920-5.0880L58.8480-5.0880Q58.0800-4.2240 57.4560-2.2080Q56.8320-0.1920 56.0640 0.6720L56.0640 0.6720Q50.9760 0.7680 46.7520 0.6720L46.7520 0.6720Q46.0800 0.6720 45.7440 0.1920Q45.4080-0.2880 45.5040-0.9600L45.5040-0.9600Q45.7920-2.0160 46.2720-3.7440L46.2720-3.7440Q46.5600-4.8000 48.5280-11.4240Q50.4960-18.0480 51.4560-21.5040L51.4560-21.5040Q52.0320-23.4240 52.7040-25.9680Q53.3760-28.5120 54.0480-31.0080Q54.7200-33.5040 55.2960-35.4240ZM63.8400-24.5760L63.8400-24.5760Q61.4400-16.2240 61.0560-14.1120L61.0560-14.1120L67.0080-14.1120Q67.0080-15.5520 66.9120-15.6480L66.9120-15.6480Q65.8560-19.4880 64.7040-23.4240L64.7040-23.4240Q64.7040-23.5200 63.8400-24.5760ZM59.9040-31.3920L59.9040-31.3920Q60.0960-31.3920 60.2400-31.2960Q60.3840-31.2000 60.5760-31.1040Q60.7680-31.0080 60.9600-30.9120L60.9600-30.9120Q60.9600-32.4480 59.5200-33.9840L59.5200-33.9840Q58.6560-32.7360 58.7520-32.4000Q58.8480-32.0640 59.9040-31.3920ZM54.6240-15.3600L54.6240-15.3600Q54.8160-15.5520 56.5440-17.0880L56.5440-17.0880Q55.6800-17.4720 54.4320-16.9920L54.4320-16.9920Q54.0480-16.8000 53.7600-16.1280L53.7600-16.1280Q53.5680-15.7440 53.8560-15.3600L53.8560-15.3600Q53.9520-15.2640 54.2400-15.2640Q54.5280-15.2640 54.6240-15.3600ZM59.4240-29.3760L59.4240-29.3760Q59.2320-28.8960 58.6560-27.6480L58.6560-27.6480Q61.1520-27.9360 61.5360-28.0320L61.5360-28.0320Q61.5360-28.0320 61.8240-28.5120L61.8240-28.5120Q61.6320-28.6080 59.4240-29.3760ZM74.9760-8.0640L74.9760-8.0640Q75.2640-8.3520 75.8400-8.6880Q76.4160-9.0240 76.8000-9.4560Q77.1840-9.8880 77.3760-10.4640L77.3760-10.4640Q76.0320-10.2720 76.0320-10.2720L76.0320-10.2720Q75.9360-10.1760 75.6000-9.8400Q75.2640-9.5040 75.1680-9.4080Q75.0720-9.3120 74.9280-8.8320Q74.7840-8.3520 74.9760-8.0640ZM62.5920-38.4000L62.5920-38.4000Q63.3600-37.6320 63.8880-37.7760Q64.4160-37.9200 65.9520-39.4560L65.9520-39.4560Q63.3600-38.6880 62.5920-38.4000ZM57.2160-9.3120L57.2160-9.3120Q57.2160-9.2160 57.6960-8.3520L57.6960-8.3520Q57.7920-8.3520 57.9360-8.4000Q58.0800-8.4480 58.1760-8.4480L58.1760-8.4480Q58.1760-9.5040 58.0800-9.6000L58.0800-9.6000Q58.0800-9.9840 57.9360-10.1760Q57.7920-10.3680 57.5040-10.2720L57.5040-10.2720Q57.1200-10.0800 57.2160-9.3120ZM67.2000-34.7520L67.2000-34.7520Q68.7360-34.1760 69.1200-34.0800L69.1200-34.0800Q69.1200-34.0800 69.1680-34.2240Q69.2160-34.3680 69.3120-34.3680L69.3120-34.3680Q68.1600-35.3280 68.0640-35.4240L68.0640-35.4240Q67.2960-35.9040 67.2000-34.7520ZM68.6400-32.1600L68.6400-32.1600Q68.3520-32.2560 67.8720-32.4480Q67.3920-32.6400 67.2960-32.6400L67.2960-32.6400Q66.5280-31.8720 67.4880-31.3920L67.4880-31.3920Q68.4480-30.9120 68.6400-32.1600ZM63.3600-30.1440L63.3600-30.1440Q63.4560-30.1440 64.0320-30.8160L64.0320-30.8160Q63.1680-31.3920 63.0720-31.3920L63.0720-31.3920Q62.6880-31.4880 62.4960-30.9120L62.4960-30.9120Q62.4960-30.6240 62.7840-30.3360Q63.0720-30.0480 63.3600-30.1440ZM55.2000-21.3120L55.2000-21.3120Q55.2000-21.3120 55.8720-21.9840L55.8720-21.9840Q55.5840-22.2720 55.1040-22.6560L55.1040-22.6560Q54.6240-22.0800 54.6240-21.9840L54.6240-21.9840Q54.6240-21.7920 54.6720-21.6480Q54.7200-21.5040 54.8160-21.3600Q54.9120-21.2160 55.2000-21.3120ZM72.4800-19.2960L72.4800-19.2960Q72.4800-19.2960 71.7120-19.5840L71.7120-19.5840Q71.8080-18.7200 71.8080-18.7200L71.8080-18.7200Q71.9040-18.4320 72.4800-18.2400L72.4800-18.2400Q72.4800-18.2400 72.6720-18.3360Q72.8640-18.4320 72.8640-18.5280L72.8640-18.5280Q72.6720-19.0080 72.4800-19.2960ZM64.7040-35.7120L64.7040-35.7120Q64.7040-35.6160 65.2800-34.9440L65.2800-34.9440Q65.9520-35.7120 66-35.7600Q66.0480-35.8080 65.9040-36.0480Q65.7600-36.2880 65.6640-36.3840L65.6640-36.3840Q65.2800-36.4800 64.9440-36.2880Q64.6080-36.0960 64.7040-35.7120ZM60.2880-25.1520L60.2880-25.1520Q60.3840-25.1520 61.3440-25.5360L61.3440-25.5360Q61.2480-25.6320 61.0560-25.9200L61.0560-25.9200L60.7680-26.2080Q60.6720-26.2080 59.9040-25.7280L59.9040-25.7280Q60.2880-25.1520 60.2880-25.1520ZM70.8480-16.4160L70.8480-16.4160Q70.9440-16.4160 71.9040-16.8960L71.9040-16.8960Q71.2320-17.5680 71.2320-17.5680L71.2320-17.5680Q70.4640-17.7600 70.4640-16.9920L70.4640-16.9920Q70.4640-16.8960 70.6080-16.6560Q70.7520-16.4160 70.8480-16.4160ZM52.4160-3.4560L52.4160-3.4560Q52.5120-3.4560 53.1840-3.6480L53.1840-3.6480Q52.8000-4.1280 52.8000-4.1280L52.8000-4.1280Q52.7040-4.1280 52.0320-3.9360L52.0320-3.9360Q52.4160-3.4560 52.4160-3.4560ZM84.8640-36.4800L84.8640-36.4800Q88.7040-45.5040 98.7840-45.3120L98.7840-45.3120Q102.3360-45.0240 102.5280-44.9280L102.5280-44.9280Q108.2880-43.6800 111.4560-36.7680L111.4560-36.7680Q112.4160-34.7520 110.2080-33.9840L110.2080-33.9840Q110.0160-33.8880 107.9040-33.1680Q105.7920-32.4480 104.7360-31.9680L104.7360-31.9680Q103.3920-31.4880 102.3360-32.5440L102.3360-32.5440Q100.6080-34.4640 100.3200-34.6560L100.3200-34.6560Q99.0720-35.6160 97.6800-35.3760Q96.2880-35.1360 95.3280-33.8880L95.3280-33.8880Q93.9840-32.0640 95.4240-30.4320L95.4240-30.4320Q96.3840-29.3760 97.4400-28.7040L97.4400-28.7040Q101.1840-26.4000 103.0080-25.5360L103.0080-25.5360Q106.3680-24 109.1520-21.0240L109.1520-21.0240Q111.9360-18.2400 112.4160-14.8800L112.4160-14.8800Q112.8000-12.8640 111.9360-9.9840L111.9360-9.9840Q110.4960-5.1840 106.3680-1.9200L106.3680-1.9200Q104.8320-0.7680 103.1040-0.1920Q101.3760 0.3840 99.4560 0.4800L99.4560 0.4800Q93.5040 0.9600 89.9520-1.6320L89.9520-1.6320Q86.9760-3.7440 84.7680-8.6400L84.7680-8.6400Q84.0960-10.1760 85.6320-10.8480L85.6320-10.8480Q88.4160-12.1920 91.2960-13.2480L91.2960-13.2480Q92.3520-13.6320 92.8320-13.4880Q93.3120-13.3440 93.9840-12.3840L93.9840-12.3840Q95.4240-10.2720 96.9600-9.6960L96.9600-9.6960Q98.3040-9.1200 99.6960-9.8880Q101.0880-10.6560 101.2800-12L101.2800-12Q101.4720-12.8640 100.8960-13.3440L100.8960-13.3440Q99.8400-14.3040 98.3040-15.2640L98.3040-15.2640Q97.3440-15.8400 95.1360-17.1360Q92.9280-18.4320 91.7760-19.1040L91.7760-19.1040Q90.2400-20.0640 88.4160-21.6000L88.4160-21.6000Q85.0560-24.4800 84.1440-28.4160Q83.2320-32.3520 84.8640-36.4800ZM101.4720-38.4000L101.4720-38.4000Q102.4320-37.6320 102.7680-37.7280Q103.1040-37.8240 104.0640-39.2640L104.0640-39.2640Q103.0080-38.6880 102.9120-38.6880Q102.8160-38.6880 101.4720-38.4000ZM94.1760-24L94.1760-24Q93.2160-23.9040 93.0240-23.8080L93.0240-23.8080Q93.5040-22.0800 93.6000-21.8880L93.6000-21.8880Q93.6000-21.7920 94.2720-21.5040L94.2720-21.5040Q94.8480-23.1360 94.1760-24ZM105.6960-12.2880L105.6960-12.2880Q105.6960-12.1920 107.3280-11.4240L107.3280-11.4240Q106.4640-13.1520 106.3680-13.2480L106.3680-13.2480Q106.2720-13.4400 105.9360-13.4880Q105.6000-13.5360 105.3600-13.4400Q105.1200-13.3440 105.2160-13.1520L105.2160-13.1520Q105.2160-12.6720 105.6960-12.2880ZM103.4880-19.5840L103.4880-19.5840Q103.4880-19.5840 104.5440-19.2000L104.5440-19.2000Q104.3520-20.3520 104.3520-20.3520L104.3520-20.3520Q104.0640-20.6400 103.3920-20.8320L103.3920-20.8320Q103.2960-20.8320 103.1520-20.6880Q103.0080-20.5440 103.0080-20.5440L103.0080-20.5440Q103.2000-19.8720 103.4880-19.5840ZM101.2800-5.6640L101.2800-5.6640Q101.1840-5.6640 100.8000-4.8000L100.8000-4.8000Q100.9920-4.7040 101.2320-4.5120Q101.4720-4.3200 101.5680-4.3200L101.5680-4.3200Q101.8560-4.9920 101.8560-5.0880L101.8560-5.0880Q101.9520-5.1840 101.8080-5.3760Q101.6640-5.5680 101.4720-5.6640Q101.2800-5.7600 101.2800-5.6640ZM93.5040-38.9760L93.5040-38.9760Q93.5040-38.9760 93.6960-38.7840L93.6960-38.7840Q93.9840-38.7840 93.9840-38.8800L93.9840-38.8800Q94.3680-39.0720 94.5120-39.5520Q94.6560-40.0320 94.3680-40.3200L94.3680-40.3200Q94.2720-40.3200 94.1760-40.3200L94.1760-40.3200Q93.7920-40.3200 93.5520-39.8880Q93.3120-39.4560 93.5040-38.9760ZM98.4000-41.6640L98.4000-41.6640Q98.4960-41.6640 98.2080-42.1440L98.2080-42.1440Q97.7280-41.7600 97.6320-41.6640L97.6320-41.6640Q97.6320-41.6640 97.8240-41.1840L97.8240-41.1840Q98.4000-41.5680 98.4000-41.6640ZM88.1280-33.5040L88.1280-33.5040Q88.2240-33.5040 88.8960-33.8880L88.8960-33.8880Q88.3200-34.3680 88.3200-34.3680L88.3200-34.3680Q87.9360-34.3680 87.7440-33.9840L87.7440-33.9840Q87.7440-33.8880 87.8880-33.6960Q88.0320-33.5040 88.1280-33.5040ZM101.3760-40.0320L101.3760-40.0320Q101.4720-40.0320 101.8560-40.1280L101.8560-40.1280Q101.5680-40.5120 101.5680-40.5120Q101.5680-40.5120 101.1840-40.4160L101.1840-40.4160Q101.3760-40.0320 101.3760-40.0320ZM146.4960-28.8960L146.4960-28.8960Q146.4960-28.8000 146.4960-27.3600L146.4960-27.3600Q146.9760-21.6960 142.4640-14.7840L142.4640-14.7840Q139.1040-9.6000 131.6160-8.7360L131.6160-8.7360Q131.2320-8.6400 130.7040-8.6880Q130.1760-8.7360 129.7920-8.6400L129.7920-8.6400Q128.6400-8.6400 128.1600-8.1600Q127.6800-7.6800 127.6800-6.5280L127.6800-6.5280Q127.5840-6.2400 127.5840-4.8000Q127.5840-3.3600 127.5840-2.9760L127.5840-2.9760Q127.5840-1.4400 127.5840-0.9600L127.5840-0.9600Q127.2960 0.5760 125.7600 0.5760L125.7600 0.5760Q121.7280 0.6720 119.0400 0.5760L119.0400 0.5760Q117.7920 0.5760 117.3600 0.0960Q116.9280-0.3840 116.7360-1.4400L116.7360-1.4400Q116.4480-3.6480 116.4480-12.8640L116.4480-12.8640Q116.5440-28.7040 116.5440-29.3760L116.5440-29.3760Q116.6400-31.5840 116.5920-35.6640Q116.5440-39.7440 116.5440-41.9520L116.5440-41.9520Q116.5440-43.0080 116.6400-43.1040L116.6400-43.1040Q116.7360-44.3520 117.2160-44.8320Q117.6960-45.3120 119.0400-45.4080L119.0400-45.4080Q123.4560-45.6000 133.3440-45.4080L133.3440-45.4080Q138.1440-45.3120 142.2720-40.4160L142.2720-40.4160Q146.6880-35.2320 146.4960-28.8960ZM133.4400-21.4080L133.4400-21.4080Q135.4560-24.1920 135.4560-27.7440L135.4560-27.7440Q135.4560-30.5280 134.1120-32.7360L134.1120-32.7360Q132.7680-34.9440 130.3680-34.4640L130.3680-34.4640Q130.2720-34.3680 129.8400-34.3200Q129.4080-34.2720 129.2160-34.1760L129.2160-34.1760Q128.4480-33.9840 128.1120-33.6000Q127.7760-33.2160 127.6800-32.4480L127.6800-32.4480Q127.5840-31.8720 127.6800-30.6240L127.6800-30.6240Q127.6800-28.9920 127.7280-25.7760Q127.7760-22.5600 127.7760-22.1760L127.7760-22.1760Q127.7760-20.4480 129.0240-20.0640L129.0240-20.0640Q131.7120-19.1040 133.4400-21.4080ZM125.5680-15.1680L125.5680-15.1680Q125.9520-15.4560 127.4880-16.7040L127.4880-16.7040Q126.8160-17.5680 125.6640-16.9920L125.6640-16.9920Q125.5680-16.9920 125.5680-16.8960L125.5680-16.8960Q125.2800-16.8000 124.8960-15.7440L124.8960-15.7440Q124.8000-15.5520 125.0880-15.3120Q125.3760-15.0720 125.5680-15.1680ZM136.7040-39.2640L136.7040-39.2640Q134.0160-38.4960 133.6320-38.4000L133.6320-38.4000Q134.8800-37.7280 135.4080-37.8720Q135.9360-38.0160 136.7040-39.2640ZM140.8320-34.3680L140.8320-34.3680Q140.7360-34.4640 139.9680-34.9920Q139.2000-35.5200 138.6240-35.9040L138.6240-35.9040Q138.5280-34.8480 138.5280-34.8480L138.5280-34.8480Q139.2960-34.4640 140.3520-34.0800L140.3520-34.0800Q140.3520-34.0800 140.8320-34.3680ZM126.9120-40.5120L126.9120-40.5120Q126.9120-40.5120 126.7200-40.7040L126.7200-40.7040Q125.4720-39.6480 126.0480-38.9760L126.0480-38.9760Q126.1440-38.8800 126.2400-38.8800L126.2400-38.8800Q127.1040-39.1680 126.9120-40.5120ZM137.3760-36L137.3760-36Q137.3760-36.0960 136.5120-36.5760L136.5120-36.5760Q135.9360-35.8080 135.9360-35.7120L135.9360-35.7120Q135.9360-35.6160 136.1280-35.4240Q136.3200-35.2320 136.5120-35.2320L136.5120-35.2320Q136.8960-35.1360 137.2320-35.4720Q137.5680-35.8080 137.3760-36ZM131.7120-13.9200L131.7120-13.9200Q131.7120-13.9200 132.8640-14.3040L132.8640-14.3040Q132-15.0720 131.9040-15.0720L131.9040-15.0720Q131.8080-15.1680 131.5200-15.0240Q131.2320-14.8800 131.2320-14.7840L131.2320-14.7840Q131.4240-14.1120 131.7120-13.9200ZM120.7680-33.5040L120.7680-33.5040Q120.8640-33.6000 121.3440-34.2720L121.3440-34.2720Q120.8640-34.8480 120.8640-34.8480L120.8640-34.8480Q120.5760-34.8480 120.2880-34.4640Q120-34.0800 120.0960-33.7920L120.0960-33.7920Q120.1920-33.6960 120.4320-33.6000Q120.6720-33.5040 120.7680-33.5040ZM136.8960-19.8720L136.8960-19.8720Q136.8960-19.9680 136.7040-20.7360L136.7040-20.7360Q136.5120-20.6400 136.2720-20.5440Q136.0320-20.4480 136.0320-20.4480L136.0320-20.4480Q136.3200-19.9680 136.6080-19.5840L136.6080-19.5840Q136.8960-19.8720 136.8960-19.8720ZM122.4960-6.0480Q123.2640-7.2960 123.2640-7.3440Q123.2640-7.3920 122.2080-8.3520L122.2080-8.3520Q122.2080-8.2560 122.4960-6.0480L122.4960-6.0480ZM124.0320-20.4480Q124.2240-21.1200 124.2240-21.1680Q124.2240-21.2160 123.5520-21.7920L123.5520-21.7920Q123.4560-20.9280 123.4560-20.8800Q123.4560-20.8320 124.0320-20.4480L124.0320-20.4480ZM139.8720-31.9680L139.8720-31.9680Q139.7760-31.9680 139.5360-32.1120Q139.2960-32.2560 139.2000-32.3520L139.2000-32.3520Q139.1040-32.2560 138.9600-32.1600Q138.8160-32.0640 138.7200-31.9680L138.7200-31.9680Q139.2000-31.4880 139.2480-31.4880Q139.2960-31.4880 139.8720-31.9680ZM130.3680-41.4720L130.3680-41.4720Q130.4640-41.4720 131.0400-41.8560L131.0400-41.8560Q130.6560-42.1440 130.5600-42.1440L130.5600-42.1440Q130.5600-42.1440 130.0800-41.8560L130.0800-41.8560Q130.3680-41.4720 130.3680-41.4720ZM133.8240-40.2240L133.8240-40.2240Q134.0160-40.4160 134.1120-40.6080L134.1120-40.6080Q134.0160-40.6080 133.9200-40.7040Q133.8240-40.8000 133.7280-40.8960L133.7280-40.8960Q133.6320-40.6080 133.6320-40.6080L133.6320-40.6080Q133.6320-40.6080 133.8240-40.2240ZM158.5920 0.6720L158.5920 0.6720Q153.3120 0.7680 151.3920 0.5760L151.3920 0.5760Q150.7200-0.2880 150.7200-2.4000L150.7200-2.4000Q150.7200-4.4160 150.5280-16.8000L150.5280-16.8000Q150.5280-17.8560 150.5280-17.9520L150.5280-17.9520Q150.7200-19.4880 150.7200-21.0720Q150.7200-22.6560 150.6240-24.8640Q150.5280-27.0720 150.5280-27.9360L150.5280-27.9360Q150.5280-29.6640 150.6240-32.8800Q150.7200-36.0960 150.7200-37.3440L150.7200-37.3440Q150.7200-37.5360 150.5280-42.3360L150.5280-42.3360Q150.5280-43.2000 150.5280-43.4880L150.5280-43.4880Q150.7200-45.6960 152.8320-45.6000L152.8320-45.6000Q153.4080-45.6000 156.0480-45.5040Q158.6880-45.4080 160.1280-45.4080L160.1280-45.4080Q161.2800-45.4080 163.7280-45.5040Q166.1760-45.6000 167.4240-45.6000L167.4240-45.6000Q169.4400-45.6000 172.9920-45.3120L172.9920-45.3120Q174.3360-45.2160 174.3360-44.0640L174.3360-44.0640Q174.3360-43.4880 174.3840-42.1440Q174.4320-40.8000 174.4320-40.0320Q174.4320-39.2640 174.3360-38.1600Q174.2400-37.0560 173.9520-36.0960L173.9520-36.0960Q172.8000-35.6160 170.5920-35.5680Q168.3840-35.5200 167.9040-35.5200L167.9040-35.5200Q166.9440-35.3280 165.0240-35.3760Q163.1040-35.4240 162.0480-35.3280L162.0480-35.3280Q161.7600-34.0800 161.7600-33.9840L161.7600-33.9840Q161.7600-28.0320 161.7600-22.2720L161.7600-22.2720Q161.7600-22.1760 162.1440-21.3120L162.1440-21.3120Q162.9120-21.2160 163.7280-21.1680Q164.5440-21.1200 165.6000-21.1200Q166.6560-21.1200 167.1360-21.1200L167.1360-21.1200Q168.6720-21.1200 169.2480-20.9280Q169.8240-20.7360 170.0640-20.1120Q170.3040-19.4880 170.3040-17.9520L170.3040-17.9520Q170.3040-15.5520 170.3040-14.4000L170.3040-14.4000Q170.3040-13.0560 169.8720-12.6720Q169.4400-12.2880 168-12.1920L168-12.1920Q167.1360-12.1920 165.5520-12.2400Q163.9680-12.2880 163.5840-12.3840L163.5840-12.3840Q163.4880-12.3840 162.0480-12.2880L162.0480-12.2880Q161.5680-11.2320 162.3360-9.3120L162.3360-9.3120Q164.1600-9.1200 168-9.1680Q171.8400-9.2160 173.5680-8.9280L173.5680-8.9280Q175.1040-3.8400 173.4720 0.5760L173.4720 0.5760Q172.8000 0.7680 169.8720 0.6720Q166.9440 0.5760 166.2720 0.5760L166.2720 0.5760Q164.9280 0.6720 162.4320 0.6720Q159.9360 0.6720 158.5920 0.6720ZM160.0320-15.5520L160.0320-15.5520Q160.2240-15.6480 160.6080-15.9360Q160.9920-16.2240 161.1840-16.5120Q161.3760-16.8000 161.2800-17.3760L161.2800-17.3760Q160.0320-17.4720 159.0720-16.5120L159.0720-16.5120Q158.7840-16.2240 158.7840-15.7920Q158.7840-15.3600 159.0720-15.2640L159.0720-15.2640Q159.7440-15.1680 160.0320-15.5520ZM157.5360-3.3600L157.5360-3.3600Q158.0160-3.3600 160.2240-3.4560L160.2240-3.4560Q160.2240-3.8400 160.2240-3.9360L160.2240-3.9360Q158.1120-4.1280 157.7280-4.2240L157.7280-4.2240Q157.7280-4.2240 157.1520-3.6480L157.1520-3.6480Q157.5360-3.3600 157.5360-3.3600ZM160.6080-39.0720L160.6080-39.0720Q161.1840-40.0320 160.7040-40.7040L160.7040-40.7040Q159.7440-40.5120 159.8400-39.2640L159.8400-39.2640Q159.8400-38.9760 160.1760-38.8800Q160.5120-38.7840 160.6080-39.0720ZM168-5.1840L168-5.1840Q168-5.1840 167.6160-5.3760L167.6160-5.3760Q167.4240-5.1840 167.5200-5.1840L167.5200-5.1840Q167.6160-4.4160 167.8080-3.8400L167.8080-3.8400L168.2880-3.9360Q168.5760-4.3200 168-5.1840ZM154.6560-33.5040L154.6560-33.5040Q155.6160-33.9840 154.8480-34.8480L154.8480-34.8480Q153.7920-34.4640 154.1760-33.6960L154.1760-33.6960Q154.3680-33.3120 154.6560-33.5040ZM158.1120-20.3520L158.3040-20.8320Q158.3040-20.9280 157.8240-21.6000L157.8240-21.6000Q157.4400-21.5040 157.4400-21.5040L157.4400-21.5040Q157.3440-20.8320 157.4400-20.7360L157.4400-20.7360Q157.5360-20.5440 158.1120-20.3520L158.1120-20.3520ZM156.8640-6.6240L156.8640-6.6240Q156.9600-6.7200 157.3440-7.2960L157.3440-7.2960Q156.6720-7.8720 156.6720-7.8720L156.6720-7.8720Q156.0960-7.8720 156.2880-7.0080L156.2880-7.0080Q156.2880-7.0080 156.8640-6.6240ZM164.2560-41.4720L164.2560-41.4720Q164.3520-41.4720 164.9280-41.7600L164.9280-41.7600Q164.6400-42.1440 164.6400-42.1440L164.6400-42.1440Q164.5440-42.1440 163.9680-41.8560L163.9680-41.8560Q164.2560-41.4720 164.2560-41.4720ZM167.7120-40.8960L167.7120-40.8960Q167.6160-40.7040 167.5200-40.5120L167.5200-40.5120Q167.5200-40.4160 167.6640-40.3200Q167.8080-40.2240 167.9040-40.2240L167.9040-40.2240Q168.0960-40.6080 168.0960-40.6560Q168.0960-40.7040 167.7120-40.8960ZM180.1920 0.3840L180.1920 0.3840Q180.1920 0.3840 178.8480 0L178.8480 0Q178.3680-2.0160 178.3680-6.8160L178.3680-6.8160Q178.3680-7.7760 178.3680-9.6000Q178.3680-11.4240 178.3680-12.3840L178.3680-12.3840Q178.3680-13.3440 178.4160-16.1760Q178.4640-19.0080 178.4640-20.5440L178.4640-20.5440Q178.4640-21.0240 178.4640-31.3920Q178.4640-41.7600 178.4640-42.3360L178.4640-42.3360Q178.4640-43.2960 178.5600-43.7760L178.5600-43.7760Q178.7520-45.1200 180.0960-45.3120L180.0960-45.3120Q181.8240-45.6000 182.9760-45.6000L182.9760-45.6000Q183.7440-45.6000 184.7520-45.5520Q185.7600-45.5040 186.8160-45.5040Q187.8720-45.5040 188.5440-45.4080L188.5440-45.4080Q192.0960-45.4080 193.5360-45.4080L193.5360-45.4080Q200.2560-45.6960 204.7680-39.6480L204.7680-39.6480Q209.0880-33.9840 208.3200-25.7280L208.3200-25.7280Q207.7440-19.5840 204-14.3040L204-14.3040Q203.8080-13.9200 203.2800-13.2000Q202.7520-12.4800 202.6560-12.2880L202.6560-12.2880Q205.1520-5.7600 206.0160-3.5520L206.0160-3.5520Q206.0160-3.4560 206.4960-2.4960L206.4960-2.4960Q207.1680-1.2480 206.7840-0.4320Q206.4000 0.3840 204.5760 0.5760L204.5760 0.5760Q203.5200 0.6720 201.4560 0.6720Q199.3920 0.6720 198.3360 0.7680L198.3360 0.7680Q196.5120 0.8640 195.7440-1.0560L195.7440-1.0560Q194.9760-3.1680 193.5360-6.5280L193.5360-6.5280Q193.1520-7.3920 192.6720-8.0640L192.6720-8.0640Q192.0960-8.9280 190.8480-8.6400L190.8480-8.6400Q189.8880-8.3520 189.7920-7.3920L189.7920-7.3920Q189.7920-6.6240 189.7440-5.5680Q189.6960-4.5120 189.6480-3.5520Q189.6000-2.5920 189.5040-1.8240L189.5040-1.8240Q189.4080-0.3840 188.9280 0.0960Q188.4480 0.5760 187.0080 0.5760L187.0080 0.5760Q184.6080 0.6720 180.1920 0.3840ZM191.2320-34.3680L191.2320-34.3680Q191.1360-34.3680 189.9840-33.8880L189.9840-33.8880Q189.7920-33.5040 189.7920-33.5040L189.7920-33.5040Q189.6000-24.0960 189.6000-21.6000L189.6000-21.6000Q189.6000-20.3520 191.1360-20.0640L191.1360-20.0640Q194.1120-19.4880 195.6480-21.9840L195.6480-21.9840Q197.5680-25.4400 196.9920-30.2400L196.9920-30.2400Q196.4160-35.2320 191.2320-34.3680ZM187.2000-15.1680L187.2000-15.1680Q188.8320-16.0320 189.2160-17.5680L189.2160-17.5680Q187.2000-16.8960 187.1040-16.8960L187.1040-16.8960Q186.8160-16.6080 186.6240-15.5520L186.6240-15.5520Q186.6240-15.5520 186.9120-15.3600Q187.2000-15.1680 187.2000-15.1680ZM195.7440-38.1120L195.7440-38.1120Q196.8000-37.7280 197.1840-37.8720Q197.5680-38.0160 198.5280-39.2640L198.5280-39.2640Q196.4160-38.6880 195.9360-38.5920L195.9360-38.5920Q195.9360-38.5920 195.7440-38.1120ZM193.3440-13.9200L193.3440-13.9200Q193.4400-13.9200 194.5920-14.2080L194.5920-14.2080Q193.6320-15.0720 193.6320-15.0720L193.6320-15.0720Q193.3440-15.1680 193.1040-15.0240Q192.8640-14.8800 192.8640-14.4960L192.8640-14.4960Q192.9600-13.9200 193.3440-13.9200ZM188.5440-40.5120L188.5440-40.5120Q188.5440-40.6080 188.3520-40.7040L188.3520-40.7040Q188.0640-40.6080 188.0640-40.6080L188.0640-40.6080Q187.2960-39.9360 187.5840-39.0720L187.5840-39.0720Q187.7760-38.7840 188.0640-38.8800L188.0640-38.8800Q188.4480-38.9760 188.6400-39.5520Q188.8320-40.1280 188.5440-40.5120ZM198.1440-35.3280L198.1440-35.3280Q198.2400-35.3280 199.2960-35.9040L199.2960-35.9040Q198.4320-36.3840 198.4320-36.3840L198.4320-36.3840Q198.3360-36.3840 197.6640-35.8080L197.6640-35.8080Q198.1440-35.3280 198.1440-35.3280ZM183.0720-34.3680L183.0720-34.3680Q183.0720-34.3680 182.9760-34.8480L182.9760-34.8480Q182.5920-34.8480 182.4960-34.8480L182.4960-34.8480Q181.7280-34.5600 181.8240-33.7920L181.8240-33.7920Q181.8240-33.6000 182.2080-33.5040L182.2080-33.5040Q182.4960-33.5040 182.6880-33.6000Q182.8800-33.6960 182.9280-33.8880Q182.9760-34.0800 183.0720-34.3680ZM184.0320-7.5840L184.0320-7.5840Q184.0320-7.4880 184.1280-6.5280L184.1280-6.5280Q184.8000-6.8160 184.8000-6.8160L184.8000-6.8160Q184.8000-7.0080 184.6080-7.7760L184.6080-7.7760Q184.0320-7.5840 184.0320-7.5840ZM186.0480-20.9280L186.0480-20.9280Q185.9520-21.0240 185.4720-21.6960L185.4720-21.6960Q185.0880-21.2160 185.0880-21.2160L185.0880-21.2160Q185.0880-21.1200 185.5680-20.4480L185.5680-20.4480Q186.0480-20.9280 186.0480-20.9280ZM200.3520-13.1520L200.3520-13.1520Q200.3520-13.2480 199.8720-14.0160L199.8720-14.0160Q199.8720-13.9200 199.2000-13.1520L199.2000-13.1520Q199.7760-12.6720 199.7760-12.6720L199.7760-12.6720Q199.9680-12.6720 200.1600-12.8640Q200.3520-13.0560 200.3520-13.1520ZM200.3520-4.5120L200.3520-4.5120Q200.2560-4.5120 199.6800-4.0320L199.6800-4.0320Q200.3520-3.5520 200.4480-3.6480L200.4480-3.6480Q200.5440-3.6480 201.0240-4.3200L201.0240-4.3200Q200.3520-4.5120 200.3520-4.5120ZM201.2160-34.5600L201.2160-34.5600Q201.2160-34.5600 201.4080-34.7520L201.4080-34.7520Q201.3120-35.0400 201.3120-35.0400L201.3120-35.0400Q201.2160-35.1360 200.4480-35.5200L200.4480-35.5200Q200.3520-35.4240 200.3520-35.1360L200.3520-35.1360L200.1600-34.8480Q201.1200-34.6560 201.2160-34.5600ZM195.2640-40.4160L195.2640-40.4160Q195.3600-40.4160 195.7440-40.2240L195.7440-40.2240Q195.9360-40.6080 195.8880-40.6560Q195.8400-40.7040 195.4560-40.8960L195.4560-40.8960Q195.2640-40.4160 195.2640-40.4160ZM191.7120-41.7600L191.7120-41.7600Q191.8080-41.6640 192.1920-41.3760L192.1920-41.3760Q192.2880-41.4720 192.3840-41.6640Q192.4800-41.8560 192.5760-41.9520L192.5760-41.9520Q192.1920-42.1440 192.1920-42.1440L192.1920-42.1440Q192.0960-42.1440 191.7120-41.7600ZM201.3120-31.5840L201.3120-31.5840Q201.3120-31.5840 201.6000-32.0640L201.6000-32.0640Q200.9280-32.0640 200.7360-32.0640L200.7360-32.0640Q200.7360-32.0640 200.6400-31.8720L200.6400-31.8720Q201.2160-31.5840 201.3120-31.5840ZM233.0880 2.6880L233.0880 2.6880Q233.0880-0.7680 233.0880-25.2480L233.0880-25.2480Q233.0880-45.7920 233.0880-51.7440L233.0880-51.7440Q233.0880-54.8160 233.1840-57.0240L233.1840-57.0240Q233.2800-58.1760 233.7600-58.6560Q234.2400-59.1360 235.3920-59.1360L235.3920-59.1360Q238.6560-59.3280 242.1120-59.1360L242.1120-59.1360Q243.1680-59.1360 243.6480-58.7040Q244.1280-58.2720 244.2240-57.2160L244.2240-57.2160Q244.4160-56.3520 244.3200-55.2000L244.3200-55.2000Q244.3200-54.2400 244.2720-45.2640Q244.2240-36.2880 244.1280-31.6800L244.1280-31.6800Q244.1280-28.8000 244.4160-22.5600L244.4160-22.5600Q244.4160-21.7920 244.6080-21.3600Q244.8000-20.9280 245.2320-20.7360Q245.6640-20.5440 246.3360-20.4480L246.3360-20.4480Q246.5280-20.4480 247.0560-20.4000Q247.5840-20.3520 247.7760-20.3520L247.7760-20.3520Q250.6560-20.0640 251.6160-22.7520L251.6160-22.7520Q252.4800-25.3440 256.1280-34.8480L256.1280-34.8480Q256.7040-36.2880 257.4720-38.2080Q258.2400-40.1280 258.8640-41.6640Q259.4880-43.2000 260.2080-45.0720Q260.9280-46.9440 261.5040-48.4800L261.5040-48.4800Q261.9840-49.5360 262.4160-50.7840Q262.8480-52.0320 263.3760-53.5680Q263.9040-55.1040 264.1920-55.8720L264.1920-55.8720Q264.3840-56.2560 264.6240-56.8320Q264.8640-57.4080 264.8640-57.6000L264.8640-57.6000Q265.6320-59.5200 267.5520-59.4240L267.5520-59.4240Q272.3520-59.2320 275.2320-58.9440L275.2320-58.9440Q276.0960-58.9440 276.5280-58.2240Q276.9600-57.5040 276.6720-56.6400L276.6720-56.6400Q276.1920-55.2000 274.6560-51.4560L274.6560-51.4560Q274.4640-50.9760 274.0320-50.0160Q273.6000-49.0560 273.4080-48.4800L273.4080-48.4800Q271.2000-42.7200 266.1120-29.2800L266.1120-29.2800Q261.9840-18.4320 261.7920-18.0480L261.7920-18.0480Q261.2160-16.5120 262.0800-14.9760L262.0800-14.9760Q262.9440-13.5360 264.4800-10.6560Q266.0160-7.7760 266.7840-6.5280L266.7840-6.5280Q268.0320-4.2240 270.4800 0.0480Q272.9280 4.3200 273.3120 4.9920L273.3120 4.9920Q273.7920 5.8560 273.9840 6.3360L273.9840 6.3360Q274.2720 6.9120 274.2240 7.3920Q274.1760 7.8720 273.9360 8.3040Q273.6960 8.7360 273.2640 8.9760Q272.8320 9.2160 272.2560 9.3120L272.2560 9.3120Q272.0640 9.3120 271.6800 9.3120L271.6800 9.3120Q265.2480 9.2160 264.5760 9.2160L264.5760 9.2160Q262.9440 9.2160 262.1760 7.9680L262.1760 7.9680Q259.2000 2.6880 256.2240-2.4960L256.2240-2.4960Q255.8400-3.2640 255.2640-4.2720Q254.6880-5.2800 254.1600-6.1920Q253.6320-7.1040 253.2480-7.8720L253.2480-7.8720Q252.2880-9.6000 250.2720-9.3120L250.2720-9.3120Q249.5040-9.2160 248.1120-9.1200Q246.7200-9.0240 246.4320-9.0240L246.4320-9.0240Q245.0880-8.9280 244.7040-8.4960Q244.3200-8.0640 244.3200-6.6240L244.3200-6.6240Q244.2240-6.3360 244.2720-5.7120Q244.3200-5.0880 244.3200-4.8960L244.3200-4.8960Q244.3200 4.5120 244.3200 6.6240L244.3200 6.6240Q244.3200 8.1600 243.7920 8.6880Q243.2640 9.2160 241.7280 9.2160L241.7280 9.2160Q239.8080 9.2160 235.5840 9.2160L235.5840 9.2160Q233.4720 9.1200 233.2800 7.1040L233.2800 7.1040Q233.0880 5.1840 233.0880 2.6880ZM240.5760-21.6000L240.5760-21.6000Q240.5760-22.1760 240.5760-22.7520Q240.5760-23.3280 240.5760-23.4240L240.5760-23.4240Q241.0560-23.2320 241.0560-23.2320L241.0560-23.2320Q241.5360-23.2320 242.0160-23.5200L242.0160-23.5200Q242.0160-23.5200 242.0160-24L242.0160-24Q241.1520-23.8080 241.0560-23.7120L241.0560-23.7120Q240.9600-23.7120 240.5760-23.4240L240.5760-23.4240Q240.6720-23.3280 240.4320-22.7520Q240.1920-22.1760 240.5760-21.6000ZM265.7280-48.7680L265.7280-48.7680Q265.8240-48.5760 267.7440-47.0400L267.7440-47.0400Q267.7440-48 267.5520-48.4800Q267.3600-48.9600 266.1120-50.8800L266.1120-50.8800Q265.1520-49.5360 265.7280-48.7680ZM240.9600-42.8160L240.9600-42.8160Q240.3840-44.0640 240-44.9280L240-44.9280Q238.8480-43.7760 238.7520-43.6800L238.7520-43.6800Q238.4640-43.2960 238.6560-42.9120Q238.8480-42.5280 239.3280-42.5280L239.3280-42.5280Q239.4240-42.5280 240.9600-42.8160ZM237.4080-11.4240L237.4080-11.4240Q237.7920-11.8080 239.2320-13.2480L239.2320-13.2480Q237.3120-13.6320 236.7360-11.9040L236.7360-11.9040Q236.6400-11.6160 236.9280-11.4240L236.9280-11.4240Q237.0240-11.4240 237.1680-11.4240Q237.3120-11.4240 237.4080-11.4240ZM240-47.9040L240-47.9040Q240.4800-48.6720 238.9440-49.3440L238.9440-49.3440Q238.5600-47.6160 239.3280-47.5200L239.3280-47.5200Q239.8080-47.5200 240-47.9040ZM235.5840-4.3200L235.5840-4.3200Q236.9280-4.4160 237.1200-4.7520Q237.3120-5.0880 236.9280-6.5280L236.9280-6.5280Q236.5440-6.3360 236.3040-6.0960Q236.0640-5.8560 235.9680-5.6160Q235.8720-5.3760 235.7760-4.9440Q235.6800-4.5120 235.5840-4.3200ZM256.8960-21.8880L256.8960-21.8880Q256.8960-21.8880 256.8000-21.4080L256.8000-21.4080Q256.8000-21.1200 256.8000-21.1200L256.8000-21.1200Q257.1840-20.5440 257.2800-20.5440L257.2800-20.5440Q257.6640-20.4480 257.8560-20.9280L257.8560-20.9280Q258.0480-21.3120 257.9520-21.7920L257.9520-21.7920Q257.7600-22.0800 257.3760-22.1760L257.3760-22.1760Q257.0880-22.2720 256.8960-21.8880ZM238.8480-7.7760L238.8480-7.7760Q239.7120-6.8160 240.6720-8.1600L240.6720-8.1600Q239.3280-8.6400 239.1360-8.7360L239.1360-8.7360Q238.7520-8.8320 238.6560-8.5440L238.6560-8.5440Q238.6560-7.9680 238.8480-7.7760ZM259.4880-30.4320L259.4880-30.4320Q260.4480-30.1440 261.2640-30.3360Q262.0800-30.5280 262.6560-31.5840L262.6560-31.5840Q260.7360-30.8160 259.4880-30.4320ZM257.9520-9.9840L257.9520-9.9840Q257.8560-9.9840 256.8000-9.3120L256.8000-9.3120Q257.9520-8.6400 258.0480-8.6400L258.0480-8.6400Q258.3360-8.6400 258.8160-9.4080L258.8160-9.4080Q258.9120-9.4080 258.8640-9.6000Q258.8160-9.7920 258.7200-9.8880L258.7200-9.8880Q258.2400-10.0800 257.9520-9.9840ZM237.7920-33.0240L237.7920-33.0240Q237.7920-33.0240 236.9280-33.4080L236.9280-33.4080Q237.1200-32.5440 237.1200-32.5440L237.1200-32.5440Q237.3120-32.2560 237.7920-32.0640L237.7920-32.0640Q237.8880-32.0640 238.0320-32.1600Q238.1760-32.2560 238.1760-32.3520L238.1760-32.3520Q238.0800-32.8320 237.7920-33.0240ZM257.9520-17.1840L257.9520-17.1840Q258.0480-18.1440 257.0880-18.3360L257.0880-18.3360Q256.6080-17.5680 256.6080-17.5680L256.6080-17.5680Q256.6080-17.3760 256.7040-17.1360Q256.8000-16.8960 257.0400-16.7520Q257.2800-16.6080 257.4720-16.7040L257.4720-16.7040Q257.8560-16.8000 257.9520-17.1840ZM240-4.8000L240-6.5280Q239.1360-5.9520 239.1360-5.7120Q239.1360-5.4720 240-4.8000L240-4.8000ZM258.0480-25.3440L258.0480-25.3440Q258.0480-25.2480 258.2400-25.2480L258.2400-25.2480Q258.5280-25.4400 258.5280-25.4400L258.5280-25.4400Q258.4320-25.6320 258.1440-26.7840L258.1440-26.7840Q258.0480-26.6880 257.8080-26.5920Q257.5680-26.4960 257.4720-26.4000L257.4720-26.4000Q257.9520-25.4400 258.0480-25.3440ZM260.6400-6.8160L260.6400-6.8160Q260.9280-7.1040 261.0240-7.2000L261.0240-7.2000Q260.8320-7.5840 260.8320-7.6320Q260.8320-7.6800 260.3520-7.4880L260.3520-7.4880Q260.4480-7.3920 260.5440-7.1520Q260.6400-6.9120 260.6400-6.8160ZM252.3840-11.8080L252.3840-11.8080Q252.3840-11.8080 253.1520-12.2880L253.1520-12.2880Q252.4800-12.7680 252.4800-12.7680L252.4800-12.7680Q252-12.8640 251.8080-12.4800L251.8080-12.4800Q251.6160-12.2880 251.8560-12.0480Q252.0960-11.8080 252.3840-11.8080ZM249.7920-14.4960Q250.4640-14.6880 250.4640-14.7360Q250.4640-14.7840 250.3680-15.6480L250.3680-15.6480Q249.6960-15.0720 249.6960-14.9760L249.6960-14.9760Q249.6960-14.9760 249.7920-14.4960L249.7920-14.4960ZM238.2720-20.8320L238.2720-20.8320L238.2720-20.9280L238.4640-21.3120Q237.8880-21.5040 237.7920-21.5040L237.7920-21.5040Q237.7920-21.5040 237.6000-21.1200L237.6000-21.1200Q237.6960-21.0240 237.9360-20.9280Q238.1760-20.8320 238.2720-20.8320ZM240.7680-31.2000L240.7680-31.2000Q240.7680-31.2960 240.4800-32.1600L240.4800-32.1600Q240.2880-32.0640 240-31.9680L240-31.9680Q239.9040-31.8720 239.8080-31.7760L239.8080-31.7760Q240-31.4880 240.3840-30.9120L240.3840-30.9120Q240.7680-31.2000 240.7680-31.2000ZM262.6560-36.9600L262.6560-36.9600Q262.6560-36.9600 263.1360-37.3440L263.1360-37.3440Q262.7520-37.7280 262.7520-37.7280L262.7520-37.7280Q262.6560-37.6320 262.2720-37.2480L262.2720-37.2480Q262.5600-36.9600 262.6560-36.9600ZM254.6880-18.9120L254.6880-18.9120Q254.6880-19.0080 254.8800-19.2000L254.8800-19.2000Q254.9760-19.3920 254.9760-19.4880L254.9760-19.4880Q254.5920-19.7760 254.4960-19.9680L254.4960-19.9680Q254.2080-19.4880 254.2080-19.4880L254.2080-19.4880Q254.2080-19.4880 254.6880-18.9120ZM239.9040-26.5920Q240.0960-27.0720 240.0960-27.0720Q240.0960-27.0720 239.6160-27.2640L239.6160-27.2640Q239.6160-27.1680 239.5200-27.0240Q239.4240-26.8800 239.4240-26.7840L239.4240-26.7840Q239.6160-26.7840 239.9040-26.5920L239.9040-26.5920ZM260.2560-27.3600L260.2560-27.3600Q260.4480-27.5520 260.6400-27.7440L260.6400-27.7440Q260.1600-28.0320 259.9680-28.0320L259.9680-28.0320Q259.9680-28.1280 259.8720-28.0320Q259.7760-27.9360 259.8720-27.8400L259.8720-27.8400Q259.8720-27.7440 260.2560-27.3600ZM236.1120-31.1520Q235.9680-31.0080 235.9680-30.9120Q235.9680-30.8160 236.4480-30.1440L236.4480-30.1440Q236.8320-30.9120 236.8320-30.9120L236.8320-30.9120Q236.8320-31.1040 236.2560-31.2960L236.2560-31.2960Q236.2560-31.2960 236.1120-31.1520ZM259.1040-31.9680L259.1040-31.9680Q259.3920-32.1600 259.6800-32.2560L259.6800-32.2560Q259.5840-32.5440 259.4880-32.9280L259.4880-32.9280Q258.9120-32.5440 258.9120-32.4480L258.9120-32.4480Q258.9120-32.4480 259.1040-31.9680ZM268.0320-51.5520L268.0320-51.5520Q268.3200-51.6480 268.6080-51.8400L268.6080-51.8400Q268.5120-52.2240 268.5120-52.4160L268.5120-52.4160Q267.9360-52.1280 267.9360-52.0320L267.9360-52.0320Q267.9360-52.0320 268.0320-51.5520ZM305.2800-1.7280L305.2800-1.7280Q305.2800-1.6320 304.9920-0.0960L304.9920-0.0960Q303.8400 0.5760 300.9600 0.5760L300.9600 0.5760Q299.6160 0.6720 296.2080 0.7200Q292.8000 0.7680 290.9760 0.7680Q289.1520 0.7680 286.3680 0.6720Q283.5840 0.5760 281.2800 0.2880L281.2800 0.2880Q280.9920-0.9600 280.9920-1.0560L280.9920-1.0560Q280.9920-5.7600 280.8960-14.4480Q280.8000-23.1360 280.8000-30.1920Q280.8000-37.2480 281.0880-43.5840L281.0880-43.5840Q281.0880-43.6800 281.4720-45.1200L281.4720-45.1200Q284.1600-45.5040 284.3520-45.5040L284.3520-45.5040Q287.1360-45.6960 289.6320-45.6000L289.6320-45.6000Q290.5920-45.6000 291.1200-45.3600Q291.6480-45.1200 291.8400-44.6400Q292.0320-44.1600 292.1280-43.2000L292.1280-43.2000Q292.2240-38.7840 292.2240-35.2320L292.2240-35.2320Q292.2240-27.5520 292.1280-18.5280L292.1280-18.5280Q292.1280-17.7600 292.0800-16.8480Q292.0320-15.9360 291.9840-14.9280Q291.9360-13.9200 291.9360-13.2480L291.9360-13.2480Q291.8400-11.9040 292.3200-11.3760Q292.8000-10.8480 294.0480-10.7520L294.0480-10.7520Q294.7200-10.6560 301.3440-10.4640L301.3440-10.4640Q301.5360-10.4640 301.8240-10.4640Q302.1120-10.4640 302.2080-10.4640L302.2080-10.4640Q304.5120-10.4640 304.9920-9.9360Q305.4720-9.4080 305.3760-7.2960L305.3760-7.2960Q305.3760-6.7200 305.3280-4.7520Q305.2800-2.7840 305.2800-1.7280ZM287.6160-3.3600L287.6160-3.3600Q288.1920-3.3600 290.6880-3.3600L290.6880-3.3600Q290.4000-3.9360 290.4000-3.9360L290.4000-3.9360Q288.3840-4.2240 287.5200-4.3200L287.5200-4.3200Q287.4240-4.3200 287.1360-3.7440L287.1360-3.7440Q287.3280-3.4560 287.3280-3.4560L287.3280-3.4560Q287.5200-3.3600 287.6160-3.3600ZM298.0800-3.8400L298.0800-3.8400Q298.2720-4.0320 298.3680-4.2240Q298.4640-4.4160 298.4640-4.6080Q298.4640-4.8000 298.4160-5.0400Q298.3680-5.2800 298.3200-5.4240Q298.2720-5.5680 298.1760-5.8080Q298.0800-6.0480 297.9840-6.1440L297.9840-6.1440Q297.4080-5.5680 297.4080-5.2800Q297.4080-4.9920 298.0800-3.8400ZM284.2560-33.7920L284.2560-33.7920Q284.2560-33.7920 284.8320-33.6000L284.8320-33.6000Q285.1200-34.3680 285.1200-34.4640L285.1200-34.4640Q285.1200-34.4640 284.5440-34.6560L284.5440-34.6560Q284.2560-33.9840 284.2560-33.7920ZM286.8480-6.8160Q287.1360-7.4880 287.1360-7.5360Q287.1360-7.5840 286.6560-8.2560L286.6560-8.2560Q286.3680-7.3920 286.3680-7.3440Q286.3680-7.2960 286.8480-6.8160L286.8480-6.8160ZM294.2400-3.0720Q294.7200-2.8800 294.7680-2.8800Q294.8160-2.8800 295.0080-3.3600L295.0080-3.3600Q294.6240-3.4560 294.5760-3.4560Q294.5280-3.4560 294.2400-3.0720L294.2400-3.0720ZM288-20.6400L288-20.6400Q288.0960-20.7360 288.0960-20.8320L288.0960-20.8320Q288.1920-21.0240 288.2880-21.2160L288.2880-21.2160Q287.8080-21.6000 287.7120-21.6000L287.7120-21.6000Q287.7120-21.6000 287.3280-21.3120L287.3280-21.3120Q287.4240-21.2160 287.6640-20.9760Q287.9040-20.7360 288-20.6400ZM330.6240-44.2560L330.6240-44.2560Q330.6240-44.2560 331.0080-45.1200L331.0080-45.1200Q334.7520-46.0800 340.0320-45.4080L340.0320-45.4080Q341.3760-45.2160 341.4720-43.8720L341.4720-43.8720Q341.7600-42.1440 341.7600-40.6080L341.7600-40.6080Q341.7600-25.6320 341.6640-18.8160L341.6640-18.8160Q341.6640-17.1840 341.1840-14.7840L341.1840-14.7840Q340.6080-12.4800 339.7440-9.6960L339.7440-9.6960Q338.0160-4.6080 333.5040-1.7760Q328.9920 1.0560 323.4240 0.5760L323.4240 0.5760Q320.0640 0.2880 317.6640-0.7680L317.6640-0.7680Q313.0560-2.8800 311.0400-6.8160L311.0400-6.8160Q309.5040-9.7920 308.9280-12.2880L308.9280-12.2880Q307.6800-17.2800 307.6800-21.7920L307.6800-21.7920Q307.6800-23.4240 307.6800-42.1440L307.6800-42.1440Q307.6800-43.2000 307.7760-43.5840L307.7760-43.5840Q307.9680-45.6000 309.7920-45.6000L309.7920-45.6000Q313.7280-45.6000 317.1840-45.3120L317.1840-45.3120Q319.0080-45.2160 319.0080-43.1040L319.0080-43.1040Q319.0080-42.4320 318.9120-40.8480Q318.8160-39.2640 318.8160-38.4000L318.8160-38.4000Q318.9120-28.6080 319.0080-19.0080L319.0080-19.0080Q319.1040-14.8800 320.9280-12L320.9280-12Q322.5600-9.3120 324.7200-9.3120Q326.8800-9.3120 328.5120-11.9040L328.5120-11.9040Q329.1840-12.9600 329.2800-13.5360L329.2800-13.5360Q330.5280-18.8160 330.5280-21.3120L330.5280-21.3120Q330.5280-22.4640 330.5280-27.3600Q330.5280-32.2560 330.5280-33.4080L330.5280-33.4080Q330.5280-34.7520 330.4800-37.5360Q330.4320-40.3200 330.4320-41.5680L330.4320-41.5680Q330.4320-42.7200 330.6240-44.2560ZM337.1520-31.1040L337.1520-31.1040Q335.6160-30.7200 335.4240-29.0880L335.4240-29.0880Q336.4800-28.3200 338.2080-28.9920L338.2080-28.9920Q338.0160-29.2800 337.8240-29.6640Q337.6320-30.0480 337.4400-30.4320Q337.2480-30.8160 337.1520-31.1040ZM336.4800-33.7920L336.4800-33.7920Q336.5760-33.7920 337.1520-34.3680L337.1520-34.3680Q337.1520-34.9440 336.7200-35.3280Q336.2880-35.7120 336-35.5200L336-35.5200Q335.6160-35.3280 335.5200-34.9440L335.5200-34.9440Q335.5200-34.3680 335.8080-33.9840Q336.0960-33.6000 336.4800-33.7920ZM332.1600-6.6240L332.1600-6.6240Q331.2960-7.8720 330.6240-8.8320L330.6240-8.8320Q330.7200-7.0080 330.9120-6.7200Q331.1040-6.4320 332.1600-6.6240ZM324.2880-5.1840L324.2880-5.1840Q324.2880-4.9920 324.9600-3.7440L324.9600-3.7440Q325.0560-3.8400 325.1520-3.8400Q325.2480-3.8400 325.3440-3.8400L325.3440-3.8400Q325.3440-5.0880 325.3440-5.1840L325.3440-5.1840Q325.2480-6.0480 324.6720-5.7600L324.6720-5.7600Q324.0960-5.5680 324.2880-5.1840ZM334.1760-18.5280L334.1760-18.5280Q334.1760-18.4320 334.5600-18.2400L334.5600-18.2400Q334.6560-18.2400 334.8480-18.3360Q335.0400-18.4320 335.1360-18.4320L335.1360-18.4320Q334.5600-19.2000 334.4640-19.3920L334.4640-19.3920L334.0800-19.2960Q334.0800-18.7200 334.1760-18.5280ZM328.9920-4.1280L328.9920-4.1280Q329.1840-3.9360 329.7600-3.3600L329.7600-3.3600Q330.3360-4.0320 330.3360-4.1280L330.3360-4.1280Q330.4320-4.7040 329.5680-4.6080L329.5680-4.6080Q329.5680-4.6080 328.9920-4.1280ZM311.1360-34.0800L311.1360-34.0800Q311.1360-34.0800 311.5200-33.2160L311.5200-33.2160Q312.1920-34.0800 312.1920-34.1760L312.1920-34.1760Q312.1920-34.1760 311.9040-34.8480L311.9040-34.8480Q311.2320-34.1760 311.1360-34.0800ZM337.3440-22.4640Q337.8240-21.7920 337.8240-21.7920Q337.8240-21.7920 338.6880-21.9840L338.6880-21.9840Q338.2080-22.6560 338.1600-22.6560Q338.1120-22.6560 337.3440-22.4640L337.3440-22.4640ZM314.5920-20.5440L314.5920-20.5440Q314.5920-20.5440 315.0720-20.3520L315.0720-20.3520Q315.2640-20.5440 315.2640-20.5440L315.2640-20.5440Q315.0720-21.2160 314.8800-21.5040L314.8800-21.5040Q314.8800-21.5040 314.4000-21.5040L314.4000-21.5040Q314.5920-20.6400 314.5920-20.5440ZM337.1520-17.1840L337.1520-17.1840Q337.1520-17.1840 338.0160-17.4720L338.0160-17.4720Q337.2480-18.2400 337.1520-18.2400L337.1520-18.2400L336.6720-18.0480Q336.9600-17.4720 337.1520-17.1840ZM310.8480-27.7440L310.8480-27.7440Q310.9440-27.6480 311.2320-27.4560L311.2320-27.4560L311.4240-27.3600Q311.6160-27.4560 311.6160-27.5520L311.6160-27.5520Q311.2320-27.9360 311.1360-28.0320L311.1360-28.0320Q311.1360-28.0320 310.8480-27.7440ZM333.1200-16.6080L333.1200-16.6080Q333.3120-16.6080 333.8880-16.9920L333.8880-16.9920Q333.3120-17.4720 333.2160-17.4720L333.2160-17.4720L332.8320-17.1840Q332.8320-17.0880 333.1200-16.6080ZM337.5360-40.9920L337.5360-40.9920Q337.5360-40.9920 337.4400-41.1360Q337.3440-41.2800 337.2480-41.3760L337.2480-41.3760Q336.8640-41.0880 336.8640-41.0400Q336.8640-40.9920 337.0560-40.6080L337.0560-40.6080Q337.1520-40.7040 337.5360-40.9920ZM346.7520-36.4800L346.7520-36.4800Q350.5920-45.5040 360.6720-45.3120L360.6720-45.3120Q364.2240-45.0240 364.4160-44.9280L364.4160-44.9280Q370.1760-43.6800 373.3440-36.7680L373.3440-36.7680Q374.3040-34.7520 372.0960-33.9840L372.0960-33.9840Q371.9040-33.8880 369.7920-33.1680Q367.6800-32.4480 366.6240-31.9680L366.6240-31.9680Q365.2800-31.4880 364.2240-32.5440L364.2240-32.5440Q362.4960-34.4640 362.2080-34.6560L362.2080-34.6560Q360.9600-35.6160 359.5680-35.3760Q358.1760-35.1360 357.2160-33.8880L357.2160-33.8880Q355.8720-32.0640 357.3120-30.4320L357.3120-30.4320Q358.2720-29.3760 359.3280-28.7040L359.3280-28.7040Q363.0720-26.4000 364.8960-25.5360L364.8960-25.5360Q368.2560-24 371.0400-21.0240L371.0400-21.0240Q373.8240-18.2400 374.3040-14.8800L374.3040-14.8800Q374.6880-12.8640 373.8240-9.9840L373.8240-9.9840Q372.3840-5.1840 368.2560-1.9200L368.2560-1.9200Q366.7200-0.7680 364.9920-0.1920Q363.2640 0.3840 361.3440 0.4800L361.3440 0.4800Q355.3920 0.9600 351.8400-1.6320L351.8400-1.6320Q348.8640-3.7440 346.6560-8.6400L346.6560-8.6400Q345.9840-10.1760 347.5200-10.8480L347.5200-10.8480Q350.3040-12.1920 353.1840-13.2480L353.1840-13.2480Q354.2400-13.6320 354.7200-13.4880Q355.2000-13.3440 355.8720-12.3840L355.8720-12.3840Q357.3120-10.2720 358.8480-9.6960L358.8480-9.6960Q360.1920-9.1200 361.5840-9.8880Q362.9760-10.6560 363.1680-12L363.1680-12Q363.3600-12.8640 362.7840-13.3440L362.7840-13.3440Q361.7280-14.3040 360.1920-15.2640L360.1920-15.2640Q359.2320-15.8400 357.0240-17.1360Q354.8160-18.4320 353.6640-19.1040L353.6640-19.1040Q352.1280-20.0640 350.3040-21.6000L350.3040-21.6000Q346.9440-24.4800 346.0320-28.4160Q345.1200-32.3520 346.7520-36.4800ZM363.3600-38.4000L363.3600-38.4000Q364.3200-37.6320 364.6560-37.7280Q364.9920-37.8240 365.9520-39.2640L365.9520-39.2640Q364.8960-38.6880 364.8000-38.6880Q364.7040-38.6880 363.3600-38.4000ZM356.0640-24L356.0640-24Q355.1040-23.9040 354.9120-23.8080L354.9120-23.8080Q355.3920-22.0800 355.4880-21.8880L355.4880-21.8880Q355.4880-21.7920 356.1600-21.5040L356.1600-21.5040Q356.7360-23.1360 356.0640-24ZM367.5840-12.2880L367.5840-12.2880Q367.5840-12.1920 369.2160-11.4240L369.2160-11.4240Q368.3520-13.1520 368.2560-13.2480L368.2560-13.2480Q368.1600-13.4400 367.8240-13.4880Q367.4880-13.5360 367.2480-13.4400Q367.0080-13.3440 367.1040-13.1520L367.1040-13.1520Q367.1040-12.6720 367.5840-12.2880ZM365.3760-19.5840L365.3760-19.5840Q365.3760-19.5840 366.4320-19.2000L366.4320-19.2000Q366.2400-20.3520 366.2400-20.3520L366.2400-20.3520Q365.9520-20.6400 365.2800-20.8320L365.2800-20.8320Q365.1840-20.8320 365.0400-20.6880Q364.8960-20.5440 364.8960-20.5440L364.8960-20.5440Q365.0880-19.8720 365.3760-19.5840ZM363.1680-5.6640L363.1680-5.6640Q363.0720-5.6640 362.6880-4.8000L362.6880-4.8000Q362.8800-4.7040 363.1200-4.5120Q363.3600-4.3200 363.4560-4.3200L363.4560-4.3200Q363.7440-4.9920 363.7440-5.0880L363.7440-5.0880Q363.8400-5.1840 363.6960-5.3760Q363.5520-5.5680 363.3600-5.6640Q363.1680-5.7600 363.1680-5.6640ZM355.3920-38.9760L355.3920-38.9760Q355.3920-38.9760 355.5840-38.7840L355.5840-38.7840Q355.8720-38.7840 355.8720-38.8800L355.8720-38.8800Q356.2560-39.0720 356.4000-39.5520Q356.5440-40.0320 356.2560-40.3200L356.2560-40.3200Q356.1600-40.3200 356.0640-40.3200L356.0640-40.3200Q355.6800-40.3200 355.4400-39.8880Q355.2000-39.4560 355.3920-38.9760ZM360.2880-41.6640L360.2880-41.6640Q360.3840-41.6640 360.0960-42.1440L360.0960-42.1440Q359.6160-41.7600 359.5200-41.6640L359.5200-41.6640Q359.5200-41.6640 359.7120-41.1840L359.7120-41.1840Q360.2880-41.5680 360.2880-41.6640ZM350.0160-33.5040L350.0160-33.5040Q350.1120-33.5040 350.7840-33.8880L350.7840-33.8880Q350.2080-34.3680 350.2080-34.3680L350.2080-34.3680Q349.8240-34.3680 349.6320-33.9840L349.6320-33.9840Q349.6320-33.8880 349.7760-33.6960Q349.9200-33.5040 350.0160-33.5040ZM363.2640-40.0320L363.2640-40.0320Q363.3600-40.0320 363.7440-40.1280L363.7440-40.1280Q363.4560-40.5120 363.4560-40.5120Q363.4560-40.5120 363.0720-40.4160L363.0720-40.4160Q363.2640-40.0320 363.2640-40.0320ZM388.0320-2.3040L388.0320-2.3040Q388.0320-4.7040 388.0320-7.3440Q388.0320-9.9840 388.0320-13.7760Q388.0320-17.5680 388.0320-20.1600L388.0320-20.1600Q388.1280-28.8000 388.2240-31.9680L388.2240-31.9680Q388.2240-33.9840 388.1280-34.9440L388.1280-34.9440Q388.1280-36.6720 386.4000-36.7680L386.4000-36.7680Q385.3440-36.7680 380.5440-36.7680L380.5440-36.7680Q380.3520-36.7680 379.9680-36.7200Q379.5840-36.6720 379.3920-36.6720L379.3920-36.6720Q377.1840-36.6720 377.0880-38.6880L377.0880-38.6880Q376.8960-40.9920 377.0880-43.3920L377.0880-43.3920Q377.0880-45.2160 378.8160-45.3120L378.8160-45.3120Q382.5600-45.5040 387.6480-45.6000L387.6480-45.6000Q393.1200-45.6960 398.4960-45.6000L398.4960-45.6000Q403.6800-45.6000 408.1920-45.4080L408.1920-45.4080Q409.3440-45.3120 409.8240-44.8320Q410.3040-44.3520 410.3040-43.1040L410.3040-43.1040Q410.3040-41.5680 410.0160-38.2080L410.0160-38.2080Q409.9200-37.0560 408.8640-37.0560L408.8640-37.0560Q404.1600-36.6720 403.0080-36.7680L403.0080-36.7680Q402.1440-36.8640 401.5680-36.8160Q400.9920-36.7680 400.6080-36.7680Q400.2240-36.7680 399.9360-36.5760Q399.6480-36.3840 399.5040-36.2400Q399.3600-36.0960 399.3120-35.7120Q399.2640-35.3280 399.2640-35.1360Q399.2640-34.9440 399.2640-34.3200Q399.2640-33.6960 399.2640-33.4080L399.2640-33.4080Q399.2640-30.3360 399.2640-9.0240L399.2640-9.0240Q399.2640-4.1280 399.2640-2.0160L399.2640-2.0160Q399.2640-1.2480 399.1680-0.8640L399.1680-0.8640Q398.7840 0.6720 397.2480 0.6720L397.2480 0.6720Q392.9280 0.7680 389.9520 0.6720L389.9520 0.6720Q388.2240 0.6720 388.0320-1.1520L388.0320-1.1520Q388.0320-1.3440 388.0320-2.3040ZM397.2480-39.2640L397.2480-39.2640Q395.4240-38.7840 394.0800-38.4000L394.0800-38.4000Q395.1360-37.6320 395.7120-37.8240Q396.2880-38.0160 397.2480-39.2640ZM391.2960-28.9920L391.2960-28.9920Q391.3920-28.2240 391.6800-28.1280Q391.9680-28.0320 393.7920-28.4160L393.7920-28.4160Q391.9680-29.0880 391.7760-29.1840L391.7760-29.1840Q391.7760-29.1840 391.2960-28.9920ZM394.5600-6.0480L394.5600-6.0480Q393.8880-5.4720 393.8880-5.2320Q393.8880-4.9920 394.7520-4.1280L394.7520-4.1280Q394.7520-4.3200 394.7040-4.5600Q394.6560-4.8000 394.6560-5.0400Q394.6560-5.2800 394.6560-5.5200Q394.6560-5.7600 394.5600-6.0480ZM394.8480-30.0480Q395.5200-30.7200 395.5200-30.8160Q395.5200-30.9120 394.7520-31.5840L394.7520-31.5840Q394.1760-30.9120 394.1760-30.9120L394.1760-30.9120Q394.2720-30.8160 394.8480-30.0480L394.8480-30.0480ZM391.9200-25.3440Q392.0640-25.1520 392.1600-25.1520Q392.2560-25.1520 393.2160-25.6320L393.2160-25.6320Q392.5440-26.2080 392.4480-26.2080L392.4480-26.2080Q391.6800-26.4000 391.7760-25.6320L391.7760-25.6320Q391.7760-25.5360 391.9200-25.3440ZM393.4080-7.9680L393.4080-7.9680L392.3520-7.3920Q392.3520-7.3920 392.4480-7.2480Q392.5440-7.1040 392.5440-7.0080L392.5440-7.0080Q393.0240-7.1040 393.6960-7.2960L393.6960-7.2960Q393.6000-7.3920 393.5040-7.6320Q393.4080-7.8720 393.4080-7.9680ZM392.1600-15.0720L392.1600-15.0720Q392.1600-15.0720 391.1040-14.5920L391.1040-14.5920Q392.4480-14.0160 392.5440-13.9200L392.5440-13.9200Q392.6400-13.9200 392.7360-14.1120Q392.8320-14.3040 392.8320-14.4000L392.8320-14.4000Q392.4480-14.8800 392.1600-15.0720ZM391.6800-37.0560L391.6800-37.0560Q391.6800-36.9600 391.9680-35.9040L391.9680-35.9040Q392.1600-36.9600 392.1600-37.0560L392.1600-37.0560Q392.1600-37.0560 391.8720-37.2480L391.8720-37.2480Q391.6800-37.0560 391.6800-37.0560ZM390.5280-41.8560L390.5280-41.8560Q390.5280-41.7600 390.7200-41.4720L390.7200-41.4720Q391.2000-41.6640 391.2960-41.6640L391.2960-41.6640Q391.2960-41.7600 391.2000-42.1440L391.2000-42.1440Q391.1040-42.1440 390.8640-42.0480Q390.6240-41.9520 390.5280-41.8560Z" transform="translate(-2.016 59.42857142857143)" /></g></symbol></defs><use href="#t" x="24" y="24" width="408.28799999999995" height="69.76833613445379"/></svg>