<svg xmlns="http://www.w3.org/2000/svg" viewBox="0 0 659 139" preserveAspectRatio="xMidYMid meet"><defs><symbol id="t" viewBox="0 0 611.484375 91.265625"><g fill="#134232"><path d="M29.6250-11.4844L27.9375-69L44.7188-69.7969L44.7188 1.4531L2.3438-0.9844L2.6719-28.0313L14.2031-29.2031L13.7344-11.1563L29.6250-11.4844ZM40.2188-56.7188L40.2188-56.7188Q40.5000-58.6406 40.2656-64.0313L40.2656-64.0313Q39.9375-60.6563 40.2188-56.7188ZM40.1250-55.3125L39.9844-51.9375L39.9844-47.6719Q40.0313-40.3125 40.3594-37.2656L40.3594-37.2656Q40.5000-43.0313 40.2656-54.7031L40.2656-54.7031L40.1250-55.3125ZM39.0938-52.2656L39.0938-52.2656Q39.0938-41.4375 39.1875-34.2656L39.1875-34.2656L39.1875-26.5781L39.3281-26.5781Q39.5625-31.3125 39.5625-35.7656L39.5625-35.7656Q39.5625-36.4219 39.5625-37.5938L39.5625-37.5938Q39.5625-40.9688 39.4219-46.6172Q39.2813-52.2656 39.0938-52.2656ZM86.9063-14.9063L64.5000-14.3438L59.4375 10.1719L49.4063 9.0938L67.7344-73.3594L85.3594-73.5000L105.3281 2.2031L91.7813 7.0313L86.9063-14.9063ZM69.7969-22.3594L86.6719-22.5938L77.9063-61.7344L69.7969-22.3594ZM109.8281 12.7031L111.0469 1.5938L143.1563 3.0938L143.7656-7.5469L110.7656-12.6094L113.3438-61.7813L152.0156-61.4063L152.8125-53.6250L124.5469-51.7031L125.4375-19.3125L150.7500-17.1563L151.1250 12.6094L109.8281 12.7031ZM117.6094-14.8125L117.6094-14.8125Q118.3125-20.5781 118.1719-32.3906L118.1719-32.3906Q117.6563-28.3125 117.6094-14.8125ZM119.3906-19.2656L119.3906-19.2656Q119.8125-20.0625 120.6094-29.2969L120.6094-29.2969Q120.7969-36.3750 120.5156-48.3281L120.5156-48.3281Q119.8125-42.4219 119.3906-19.2656ZM115.9688-36.3281L115.9688-36.3281Q116.9063-49.0313 116.4844-52.7344L116.4844-52.7344Q116.3906-53.2500 116.1563-55.0781L116.1563-55.0781Q115.6875-41.7656 115.9688-36.3281ZM120.8906-55.7344L120.9375-57.3281L120.8438-57.3281L120.7500-55.7344L120.8906-55.7344ZM142.1250 9.8438L142.1250 9.8438Q134.1563 9.2344 132.1406 9.4688L132.1406 9.4688Q131.8125 9.4688 130.7813 9.5625L130.7813 9.5625Q139.0781 9.9375 142.1250 9.8438ZM173.0625 11.5313L158.1094 11.2969L157.5000-74.7656L203.2500-75.7031L207-37.7813L202.8281-29.3906L170.6250-27.4688L167.9531-42.7500L195.1406-41.2500L194.6719-64.1250L173.4375-62.1094L173.0625 11.5313ZM161.4375-28.3594L161.4375-28.3594Q161.8125-33.7500 161.3906-35.7188L161.3906-35.7188Q161.0156-31.7344 161.4375-28.3594ZM161.0625-40.4063L161.2500-37.0781L161.4375-37.6875Q161.7656-49.3125 161.5781-55.0781L161.5781-55.0781Q161.1094-52.0313 161.0625-44.7188L161.0625-44.7188L161.0625-40.4063ZM160.2656-46.9219L160.2656-46.9219Q160.2656-57.7500 160.1250-64.9219L160.1250-64.9219L160.1250-72.5625L159.9375-72.5625Q159.5625-67.8281 159.5625-63.4219L159.5625-63.4219Q159.5625-62.7656 159.5625-61.5469L159.5625-61.5469Q159.5625-58.2656 159.7734-52.5938Q159.9844-46.9219 160.2656-46.9219ZM249.2344 14.7656L211.6875 15.5625L212.1563-69.9844L252.9375-69L253.4063-51.6563L223.5000-56.3438L223.5938-41.1094L236.2969-40.2188L236.8125-28.7813L226.6406-26.7188L227.0625 3.9844L249.3750 1.7813L249.2344 14.7656ZM223.4063-32.3906L223.4063-32.3906Q222.9375-26.2500 223.5938-13.6875L223.5938-13.6875Q223.9688-18 223.4063-32.3906ZM221.8125-27.6094L221.8125-27.6094Q221.4375-26.7188 221.1094-16.9219L221.1094-16.9219Q221.2500-9.3750 222 3.3750L222 3.3750Q222.4688-3 221.8125-27.6094ZM216.9375-44.1094L216.9375-44.1094Q216.5625-30.5625 217.1719-26.6719L217.1719-26.6719Q217.2656-26.1563 217.5938-24.1875L217.5938-24.1875Q217.5000-38.3438 216.9375-44.1094ZM222 11.2031L222 12.8906L222.0938 12.8906L222.0938 11.2031L222 11.2031ZM236.2969 13.0313L236.2969 13.0313Q244.1250 13.3125 246.0938 13.0313L246.0938 13.0313Q246.4219 12.9844 247.4531 12.8438L247.4531 12.8438Q239.2969 12.7969 236.2969 13.0313ZM260.9063-66L260.7656-70.8750L260.6250-70.0313Q260.3438-53.3438 260.4844-45.0469L260.4844-45.0469Q260.9063-49.3594 260.9063-59.9063L260.9063-59.9063L260.9063-66ZM292.9219-31.2656L297.7500-31.3594L296.8594-31.5000Q280.2188-31.8281 271.9688-31.6875L271.9688-31.6875Q276.3281-31.2656 286.8750-31.2188L286.8750-31.2188L292.9219-31.2656ZM295.8750-64.2188L268.3594-61.6875L269.3906-35.4844L293.5313-34.6875L295.8750-64.2188ZM296.3438 9.4688L268.6406-16.9688L268.6406 9.1875L258.0938 8.3906L258.0938-73.4063L299.0625-73.5469L305.4375-67.9219L303.3281-24.5625L276.7969-22.9688L305.1094 0.7031L296.3438 9.4688ZM275.4844-12.9375L272.4844-15.5156L272.9531-14.9531Q282.9375-5.7188 288.0469-1.2656L288.0469-1.2656Q285.6094-3.8906 279.2344-9.6094L279.2344-9.6094L275.4844-12.9375ZM293.9531 0.7500L297.7969 3.7031L297.1875 3.0469Q284.3906-7.6406 277.8750-12.7500L277.8750-12.7500Q281.0156-9.7031 289.2188-3.0469L289.2188-3.0469L293.9531 0.7500ZM334.0313-72.7969L347.4375-73.1719L345.4219-41.5313L374.1563-75.6563L382.4063-69.4688L354.8906-35.4375L391.6406 7.4063L381.4688 9L348.1875-31.3594L348.4219 6.9375L333.9375 7.1719L334.0313-72.7969ZM341.6250-38.8125L341.6250-38.8125Q342.5156-55.7344 341.9063-63.9844L341.9063-63.9844Q341.1563-44.6250 341.6250-38.8125ZM373.3594-6.3281L373.3594-6.3281Q368.6719-11.7656 368.0156-12.0938L368.0156-12.0938Q378.9375 2.2500 382.7813 6.5156L382.7813 6.5156Q376.7344-1.9688 373.3594-6.3281ZM338.5781-21.1875L338.5781-21.1875Q339.3750-26.3906 338.9063-46.6406L338.9063-46.6406Q338.1563-38.9063 338.0156-17.8125L338.0156-17.8125Q338.4375-20.4375 338.5781-21.1875ZM396.3281-73.5938L411.9375-73.7344L412.9688-8.6250L448.8281-5.4375L446.2031 5.2031L399.2344 7.5469L396.3281-73.5938ZM400.2188-70.8750L400.2188-70.8750Q400.5000-53.9531 401.3438-45.7031L401.3438-45.7031Q400.8750-65.0625 400.2188-70.8750ZM415.2656 2.7656L415.2656 2.7656Q435.5156 3.1406 440.7188 2.5313L440.7188 2.5313Q441.4688 2.4375 444.0938 2.1563L444.0938 2.1563Q423.0469 2.2500 415.2656 2.7656ZM453.5156-71.0625L467.6719-70.1719L467.1563-6.8438L489.7500-6.2813L489.0938-72.6563L506.3438-71.8125L503.4844 6.3281L465.4219 6.9375L454.6875 0.8906L453.5156-71.0625ZM486.8906 4.5469L486.8906 4.5469Q496.7813 4.8281 501.5625 4.3594L501.5625 4.3594Q490.2656 4.1719 486.8906 4.5469ZM457.2188-48.1406L457.2188-48.1406Q456.7969-62.3438 456.5156-63.6094L456.5156-63.6094Q456.4688-27.9375 456.9375-16.6406L456.9375-16.6406Q457.2656-37.2188 457.2188-48.1406ZM474.9844 2.6250L474.9844 2.6250Q477.9844 3.0469 489.7969 2.4844L489.7969 2.4844Q485.2500 2.1563 473.0156 2.3438L473.0156 2.3438Q474.5156 2.5781 474.9844 2.6250ZM510.8438 12.7031L512.0625 1.5938L544.1719 3.0938L544.7813-7.5469L511.7813-12.6094L514.3594-61.7813L553.0313-61.4063L553.8281-53.6250L525.5625-51.7031L526.4531-19.3125L551.7656-17.1563L552.1406 12.6094L510.8438 12.7031ZM518.6250-14.8125L518.6250-14.8125Q519.3281-20.5781 519.1875-32.3906L519.1875-32.3906Q518.6719-28.3125 518.6250-14.8125ZM520.4063-19.2656L520.4063-19.2656Q520.8281-20.0625 521.6250-29.2969L521.6250-29.2969Q521.8125-36.3750 521.5313-48.3281L521.5313-48.3281Q520.8281-42.4219 520.4063-19.2656ZM516.9844-36.3281L516.9844-36.3281Q517.9219-49.0313 517.5000-52.7344L517.5000-52.7344Q517.4063-53.2500 517.1719-55.0781L517.1719-55.0781Q516.7031-41.7656 516.9844-36.3281ZM521.9063-55.7344L521.9531-57.3281L521.8594-57.3281L521.7656-55.7344L521.9063-55.7344ZM543.1406 9.8438L543.1406 9.8438Q535.1719 9.2344 533.1563 9.4688L533.1563 9.4688Q532.8281 9.4688 531.7969 9.5625L531.7969 9.5625Q540.0938 9.9375 543.1406 9.8438ZM613.8281-73.8281L613.6875-59.1094L591.5625-59.9531L594.1875 10.4063L578.4844 10.1719L579.6094-57.6094L558.5156-59.9531L558.5156-73.3594L613.8281-73.8281ZM585.8906-5.0156L585.8906-5.0156Q586.4531-7.7813 585.9844-15.5156L585.9844-15.5156Q585.3750-10.6875 585.8906-5.0156ZM583.1250-34.5000L582.8906-29.6250L582.8906-23.5313Q582.9375-12.9844 583.5938-8.6250L583.5938-8.6250Q583.8281-16.9219 583.3594-33.6094L583.3594-33.6094L583.1250-34.5000ZM581.3438-19.1250L581.3438-19.1250Q581.3438-11.0156 581.4844-5.6719L581.4844-5.6719L581.4844 0.0938L581.6719 0.0938Q582.0469-3.4688 582.0469-6.7969L582.0469-6.7969Q582.0469-7.2656 582.0469-8.1563L582.0469-8.1563Q582.0469-10.6875 581.8359-14.9063Q581.6250-19.1250 581.3438-19.1250Z" transform="translate(-2.34375 75.703125)" /></g></symbol></defs><use href="#t" x="24" y="24" width="611.484375" height="91.265625"/></svg>